<svg xmlns="http://www.w3.org/2000/svg" width="54.873" height="46.431" viewBox="0 0 54.873 46.431">
    <g id="Icon_ionic-ios-options" data-name="Icon ionic-ios-options" transform="translate(-3.375 -5.625)">
        <path id="Path_232" data-name="Path 232" d="M36.523,27.916a5.284,5.284,0,0,1,9.682,0h9.933a2.117,2.117,0,0,1,2.11,2.11h0a2.117,2.117,0,0,1-2.11,2.11H46.2a5.284,5.284,0,0,1-9.682,0H5.485a2.117,2.117,0,0,1-2.11-2.11h0a2.117,2.117,0,0,1,2.11-2.11Z" transform="translate(0 16.753)" fill="#a9a9a9"/>
        <path id="Path_233" data-name="Path 233" d="M15.418,18.353a5.284,5.284,0,0,1,9.682,0H56.137a2.117,2.117,0,0,1,2.11,2.11h0a2.117,2.117,0,0,1-2.11,2.11H25.1a5.284,5.284,0,0,1-9.682,0H5.485a2.117,2.117,0,0,1-2.11-2.11h0a2.117,2.117,0,0,1,2.11-2.11Z" transform="translate(0 8.377)" fill="#a9a9a9"/>
        <path id="Path_234" data-name="Path 234" d="M36.523,8.791a5.284,5.284,0,0,1,9.682,0h9.933a2.117,2.117,0,0,1,2.11,2.11h0a2.117,2.117,0,0,1-2.11,2.11H46.2a5.284,5.284,0,0,1-9.682,0H5.485a2.117,2.117,0,0,1-2.11-2.11h0a2.117,2.117,0,0,1,2.11-2.11Z" transform="translate(0 0)" fill="#a9a9a9"/>
    </g>
</svg>
