<svg xmlns="http://www.w3.org/2000/svg" width="54.335" height="37.955" viewBox="0 0 54.335 37.955">
    <path id="Icon_metro-books" data-name="Icon metro-books" d="M13.642,8.571H4.153a1.586,1.586,0,0,0-1.581,1.581V44.945a1.586,1.586,0,0,0,1.581,1.581h9.489a1.586,1.586,0,0,0,1.581-1.581V10.153a1.586,1.586,0,0,0-1.581-1.581ZM12.06,18.06H5.734V14.9H12.06V18.06Zm17.4-9.489H19.967a1.586,1.586,0,0,0-1.581,1.581V44.945a1.586,1.586,0,0,0,1.581,1.581h9.489a1.586,1.586,0,0,0,1.581-1.581V10.153a1.586,1.586,0,0,0-1.581-1.581ZM27.875,18.06H21.549V14.9h6.326Zm12.508-7.043-8.474,4.27a1.586,1.586,0,0,0-.7,2.124L45.44,45.656a1.586,1.586,0,0,0,2.124.7l8.474-4.27a1.586,1.586,0,0,0,.7-2.124L42.506,11.718a1.586,1.586,0,0,0-2.124-.7Zm8.051,33.928a1.581,1.581,0,1,1-1.581-1.581A1.581,1.581,0,0,1,48.434,44.945Z" transform="translate(-2.571 -8.571)" fill="#fefefe"/>
</svg>
