<svg xmlns="http://www.w3.org/2000/svg" width="46.862" height="48.176" viewBox="0 0 46.862 48.176">
    <path id="Icon_material-settings" data-name="Icon material-settings" d="M44.74,29.449a18.771,18.771,0,0,0,.169-2.361,18.771,18.771,0,0,0-.169-2.361l5.083-3.975a1.215,1.215,0,0,0,.289-1.542l-4.818-8.334a1.211,1.211,0,0,0-1.469-.53l-6,2.409A17.6,17.6,0,0,0,33.755,10.4L32.84,4.012A1.175,1.175,0,0,0,31.66,3H22.025a1.175,1.175,0,0,0-1.18,1.012L19.929,10.4a18.507,18.507,0,0,0-4.071,2.361l-6-2.409a1.175,1.175,0,0,0-1.469.53L3.573,19.211a1.188,1.188,0,0,0,.289,1.542l5.083,3.975a19.1,19.1,0,0,0-.169,2.361,19.1,19.1,0,0,0,.169,2.361L3.862,33.423a1.215,1.215,0,0,0-.289,1.542L8.391,43.3a1.211,1.211,0,0,0,1.469.53l6-2.409a17.6,17.6,0,0,0,4.071,2.361l.915,6.383a1.175,1.175,0,0,0,1.18,1.012H31.66a1.175,1.175,0,0,0,1.18-1.012l.915-6.383a18.507,18.507,0,0,0,4.071-2.361l6,2.409a1.175,1.175,0,0,0,1.469-.53l4.818-8.334a1.215,1.215,0,0,0-.289-1.542L44.74,29.449Zm-17.9,6.07a8.431,8.431,0,1,1,8.431-8.431A8.44,8.44,0,0,1,26.842,35.519Z" transform="translate(-3.406 -3)" fill="#fff"/>
</svg>
