<svg xmlns="http://www.w3.org/2000/svg" width="34.35" height="39.257" viewBox="0 0 34.35 39.257">
    <path id="Icon_awesome-book" data-name="Icon awesome-book" d="M34.35,27.6V1.84A1.836,1.836,0,0,0,32.51,0H7.361A7.363,7.363,0,0,0,0,7.361V31.9a7.363,7.363,0,0,0,7.361,7.361H32.51a1.836,1.836,0,0,0,1.84-1.84V36.19a1.854,1.854,0,0,0-.682-1.434,17.1,17.1,0,0,1,0-5.728A1.827,1.827,0,0,0,34.35,27.6ZM9.814,10.274a.461.461,0,0,1,.46-.46H26.529a.461.461,0,0,1,.46.46v1.533a.461.461,0,0,1-.46.46H10.274a.461.461,0,0,1-.46-.46Zm0,4.907a.461.461,0,0,1,.46-.46H26.529a.461.461,0,0,1,.46.46v1.533a.461.461,0,0,1-.46.46H10.274a.461.461,0,0,1-.46-.46ZM29.244,34.35H7.361a2.454,2.454,0,0,1,0-4.907H29.244A27.6,27.6,0,0,0,29.244,34.35Z" fill="#fff"/>
</svg>
