<svg xmlns="http://www.w3.org/2000/svg" width="540" height="362.243" viewBox="0 0 540 362.243">
    <g id="Group_12" data-name="Group 12" transform="translate(0)">
        <rect id="Rectangle_178" data-name="Rectangle 178" width="508.996" height="1.096" transform="translate(15.081 350.821)" fill="#3f3d56"/>
        <rect id="Rectangle_179" data-name="Rectangle 179" width="1.096" height="508.996" transform="translate(54.689 153.034) rotate(-67.078)" fill="#3f3d56"/>
        <rect id="Rectangle_180" data-name="Rectangle 180" width="508.996" height="1.096" transform="translate(15.081 151.935)" fill="#3f3d56"/>
        <path id="Path_173" data-name="Path 173" d="M652.906,304.753a176.46,176.46,0,0,1-51.354,124.981q-2.7,2.72-5.528,5.315-3.4,3.139-6.98,6.087c-.455.378-.909.751-1.37,1.118a171.894,171.894,0,0,1-30.441,19.741c-.641.323-1.282.647-1.929.964-1.025.5-2.06,1-3.1,1.479a170.5,170.5,0,0,1-122.318,8.3c-70.717-21.949-122.159-88.852-122.159-167.985,0-96.983,77.27-175.6,172.588-175.6S652.906,207.77,652.906,304.753Z" transform="translate(-197.864 -128.985)" fill="#4885ec"/>
        <path id="Path_174" data-name="Path 174" d="M639.137,345.664l.137-.005-.541-1.187a33.147,33.147,0,0,0-2.219-4.871l-15.854-34.808a6.269,6.269,0,0,0-5.81-3.67l-20.077.334a6.269,6.269,0,0,0-5.844,4.288l-12.621,37.908a33.1,33.1,0,0,0-1.08,3.243l-.428,1.287.1,0a33.341,33.341,0,1,0,64.235-2.515Z" transform="translate(-318.256 -206.733)" fill="#3f3d56"/>
        <rect id="Rectangle_181" data-name="Rectangle 181" width="35.109" height="0.725" transform="translate(277.146 137.771) rotate(-79.634)" fill="#4885ec"/>
        <rect id="Rectangle_182" data-name="Rectangle 182" width="0.725" height="35.109" transform="translate(290.348 103.265) rotate(-12.264)" fill="#4885ec"/>
        <path id="Path_175" data-name="Path 175" d="M607.316,270.355l25.726-.429a.725.725,0,1,1,.024,1.449l-25.726.429a.725.725,0,1,1-.024-1.449Z" transform="translate(-332.985 -192.63)" fill="#3f3d56"/>
        <path id="Path_176" data-name="Path 176" d="M607.812,280.27l25.726-.429a.725.725,0,1,1,.024,1.449l-25.726.429a.725.725,0,1,1-.024-1.449Z" transform="translate(-333.21 -197.112)" fill="#3f3d56"/>
        <path id="Path_177" data-name="Path 177" d="M608.308,290.184l25.726-.429a.725.725,0,0,1,.024,1.449l-25.726.429a.725.725,0,1,1-.024-1.449Z" transform="translate(-333.434 -201.595)" fill="#3f3d56"/>
        <path id="Path_178" data-name="Path 178" d="M623.687,260.882c-5.1.085-9.192,3-9.134,6.506l18.479-.308C632.973,263.572,628.79,260.8,623.687,260.882Z" transform="translate(-336.579 -188.54)" fill="#3f3d56"/>
        <path id="Path_179" data-name="Path 179" d="M624.022,389.614a4.465,4.465,0,0,1,2.71,1.158c.191.158.379.324.567.491a5.659,5.659,0,0,0,2.135,1.4c1.771.483,3.519-.917,4.994-2.35l.505.52c-1.622,1.576-3.566,3.109-5.69,2.53a6.281,6.281,0,0,1-2.424-1.553c-.183-.162-.365-.323-.55-.476-.605-.5-1.775-1.284-2.815-.879a3.529,3.529,0,0,0-1.128.87,6.746,6.746,0,0,1-.783.705,3.549,3.549,0,0,1-3.933.117,7.027,7.027,0,0,1-.616-.462,1.8,1.8,0,0,0-2.932.156,3.748,3.748,0,0,1-2.051,1.019l-.079,0c-1.444.024-2.36-1.421-2.927-2.519l.644-.332c.77,1.493,1.512,2.174,2.323,2.124a3.187,3.187,0,0,0,1.642-.865,2.473,2.473,0,0,1,3.836-.149,6.4,6.4,0,0,0,.551.415,2.848,2.848,0,0,0,3.115-.093,6.12,6.12,0,0,0,.7-.632,4.117,4.117,0,0,1,1.377-1.033,2.382,2.382,0,0,1,.832-.162Z" transform="translate(-334.071 -246.741)" fill="#4885ec"/>
        <rect id="Rectangle_183" data-name="Rectangle 183" width="0.753" height="72.313" transform="translate(287.171)" fill="#3f3d56"/>
        <path id="Path_180" data-name="Path 180" d="M1026.669,329.473c-4.593,16.977-20.323,27.491-20.323,27.491s-8.285-17.011-3.692-33.988,20.323-27.491,20.323-27.491S1031.261,312.5,1026.669,329.473Z" transform="translate(-511.414 -204.185)" fill="#4885ec"/>
        <path id="Path_181" data-name="Path 181" d="M970.229,329.473c4.593,16.977,20.323,27.491,20.323,27.491s8.285-17.011,3.692-33.988-20.323-27.491-20.323-27.491S965.636,312.5,970.229,329.473Z" transform="translate(-496.755 -204.185)" fill="#4885ec"/>
        <path id="Path_182" data-name="Path 182" d="M957.7,339.885c12.6,12.267,14.141,31.125,14.141,31.125s-18.893-1.032-31.495-13.3-14.141-31.126-14.141-31.126S945.1,327.617,957.7,339.885Z" transform="translate(-477.479 -218.245)" fill="#3f3d56"/>
        <path id="Path_183" data-name="Path 183" d="M1023.641,339.885c-12.6,12.267-14.141,31.125-14.141,31.125s18.893-1.032,31.495-13.3,14.141-31.126,14.141-31.126S1036.243,327.617,1023.641,339.885Z" transform="translate(-515.136 -218.245)" fill="#3f3d56"/>
        <path id="Path_184" data-name="Path 184" d="M207.666,691.473c-4.593,16.977-20.323,27.491-20.323,27.491s-8.285-17.011-3.692-33.988,20.323-27.491,20.323-27.491S212.259,674.5,207.666,691.473Z" transform="translate(-141.14 -367.846)" fill="#4885ec"/>
        <path id="Path_185" data-name="Path 185" d="M151.229,691.473c4.593,16.977,20.323,27.491,20.323,27.491s8.285-17.011,3.692-33.988-20.323-27.491-20.323-27.491S146.636,674.5,151.229,691.473Z" transform="translate(-126.482 -367.846)" fill="#4885ec"/>
        <path id="Path_186" data-name="Path 186" d="M138.7,701.885c12.6,12.267,14.141,31.125,14.141,31.125s-18.893-1.031-31.495-13.3-14.141-31.126-14.141-31.126S126.1,689.617,138.7,701.885Z" transform="translate(-107.207 -381.907)" fill="#3f3d56"/>
        <path id="Path_187" data-name="Path 187" d="M204.641,701.885c-12.6,12.267-14.141,31.125-14.141,31.125s18.893-1.031,31.495-13.3,14.141-31.126,14.141-31.126S217.243,689.617,204.641,701.885Z" transform="translate(-144.864 -381.907)" fill="#3f3d56"/>
        <circle id="Ellipse_25" data-name="Ellipse 25" cx="10.538" cy="10.538" r="10.538" transform="translate(356.74 145.716)" fill="#2f2e41"/>
        <path id="Path_188" data-name="Path 188" d="M755.063,397.1a10.538,10.538,0,0,1,9.408-10.476,10.538,10.538,0,1,0,0,20.952A10.538,10.538,0,0,1,755.063,397.1Z" transform="translate(-399.076 -245.359)" fill="#2f2e41"/>
        <path id="Path_189" data-name="Path 189" d="M758.235,414.036s-1.637,7.527,8.591,10.538Z" transform="translate(-401.495 -257.782)" fill="#4885ec"/>
        <circle id="Ellipse_26" data-name="Ellipse 26" cx="35.379" cy="35.379" r="35.379" transform="translate(336.258 157.078)" fill="#2f2e41"/>
        <path id="Path_190" data-name="Path 190" d="M775.812,690.868c-.455.378-.91.751-1.37,1.118A171.894,171.894,0,0,1,744,711.726c-.641.323-1.282.647-1.929.964-1.025.5-2.06,1-3.1,1.479l-18.135-6.043.208-4.345v-.016l.789-16.568.268-5.665Z" transform="translate(-384.633 -378.718)" fill="#a0616a"/>
        <path id="Path_191" data-name="Path 191" d="M738.939,730.978c-1.025.5-2.06,1-3.1,1.479a168.165,168.165,0,0,1-21.867,8.421,1.219,1.219,0,0,1-.066-.34l3.8-18.557.208.088Z" transform="translate(-381.5 -397.005)" fill="#2f2e41"/>
        <circle id="Ellipse_27" data-name="Ellipse 27" cx="23.429" cy="23.429" r="23.429" transform="translate(339.376 183.135)" fill="#a0616a"/>
        <path id="Path_192" data-name="Path 192" d="M769.049,508.171s3.8,19,10.765,23.429l-38.626,45.592-14.564-13.931,10.765-19s12.031-6.965,8.232-16.464Z" transform="translate(-387.247 -300.341)" fill="#a0616a"/>
        <path id="Path_193" data-name="Path 193" d="M848.849,591.988a175.81,175.81,0,0,1-23.954,30c-.389-8.492-1.233-15.495-2.887-17.566a.017.017,0,0,1-.011-.005l-20.256-6.328s4.432-41.794,15.2-43.689c0,0,1.561.318,3.989,1.052,7.824,2.356,24.622,9,27.039,23.006a77.76,77.76,0,0,1,.882,13.528Z" transform="translate(-421.208 -321.242)" fill="#a0616a"/>
        <path id="Path_194" data-name="Path 194" d="M607.433,574.044s-19-.633-31.028,14.564-41.159,26.6-41.159,26.6L462.426,643.7s-13.3-23.429-21.529-15.2,15.2,29.128,25.962,26.6,75.986-22.163,75.986-22.163L594.769,609.5Z" transform="translate(-257.292 -330.12)" fill="#a0616a"/>
        <path id="Path_195" data-name="Path 195" d="M778.207,601.613l-2.641,22.88q-3.4,3.139-6.98,6.087c-.455.378-.909.751-1.37,1.118-18.283-5.6-46.933-4.98-52.6-4.789-.647.016-1,.033-1,.033l-.63-13.3c-6.076-2.022-8.071-6.443-8.125-11.309-.093-8.821,6.224-19.089,6.224-19.089,1.134-1.134,9.61-17.2,11.363-20.535.2-.389.318-.6.318-.6l7.6-1.9s-.022.06-.066.17c-.679,1.9-6.586,19.1,3.583,19.7,10,.592,31.767-27.5,34.764-31.444l.345-.455,8.235,4.432c-.033.011-.066.016-.1.027-5.03,1.4-9.687,13.511-9.687,13.511-13.133,23.143,10.18,35.164,10.755,35.454A.017.017,0,0,0,778.207,601.613Z" transform="translate(-377.407 -318.43)" fill="#d0cde1"/>
        <path id="Path_196" data-name="Path 196" d="M753.074,455.666c-12.472,0-22.582,5.9-22.582,13.173,0,3.255,2.032,6.23,5.387,8.529l4.347-3.15-1.182,4.935c.49.227.991.447,1.514.651l6.495-7.577v9.308a37.91,37.91,0,0,0,6.022.477c12.472,0,22.582-5.9,22.582-13.173S765.546,455.666,753.074,455.666Z" transform="translate(-388.996 -276.603)" fill="#2f2e41"/>
        <circle id="Ellipse_28" data-name="Ellipse 28" cx="10.538" cy="10.538" r="10.538" transform="translate(399.799 162.179)" fill="#2f2e41"/>
        <path id="Path_197" data-name="Path 197" d="M833.654,427.146a10.538,10.538,0,0,1,9.408-10.476,10.658,10.658,0,0,0-1.128-.062,10.538,10.538,0,1,0,1.129,21.015,10.538,10.538,0,0,1-9.409-10.476Z" transform="translate(-434.608 -258.945)" fill="#2f2e41"/>
        <path id="Path_198" data-name="Path 198" d="M836.825,444.085s-1.637,7.527,8.591,10.539Z" transform="translate(-437.026 -271.367)" fill="#4885ec"/>
        <ellipse id="Ellipse_29" data-name="Ellipse 29" cx="1.829" cy="4.116" rx="1.829" ry="4.116" transform="translate(385.355 200.548)" fill="#a0616a"/>
        <path id="Path_199" data-name="Path 199" d="M414.938,508.109l-27.766,6.727-.09.022-3.018,2.732-.869.785-1.862-.337-3.3-.6,2.3-7.754.431-14.79-1.58-9.046,8.759-6.031S405.03,478.817,414.938,508.109Z" transform="translate(-229.649 -287.522)" fill="#d0cde1"/>
        <path id="Path_200" data-name="Path 200" d="M387.172,514.84c-.376.8.412.273-.019,1.1l-4.02,1.292-1.8.811-3.3-.6,2.3-7.754.431-14.79-1.579-9.046,8.759-6.031S397.344,493.139,387.172,514.84Z" transform="translate(-229.649 -287.526)" opacity="0.1"/>
        <path id="Path_201" data-name="Path 201" d="M451.681,492.667S415.209,509.611,400.42,512.2s-13.5,17.374-13.5,17.374l82.851-12.923S466.9,503.293,451.681,492.667Z" transform="translate(-233.654 -293.331)" fill="#d0cde1"/>
        <path id="Path_202" data-name="Path 202" d="M376.133,486.765s6.318,15.364-.718,34.461l8.185,3.733,3.159-3.733.072-.359-8.687-.79s7.179-19.241,1.292-32.595C379.435,487.483,378.143,484.611,376.133,486.765Z" transform="translate(-228.464 -290.301)" fill="#4885ec"/>
        <path id="Path_203" data-name="Path 203" d="M496.544,616.123c-32.307-7.18-62.39,7.682-62.39,7.682l-.082-.073-11.98-10.7-46.81-76.389,11.415.072c31.733-18.954,76.389-16.369,76.389-16.369C482.329,542.174,496.544,616.123,496.544,616.123Z" transform="translate(-228.405 -305.793)" fill="#3f3d56"/>
        <path id="Path_204" data-name="Path 204" d="M434.073,637.278l-11.98-10.7-46.81-76.389,11.415.072S432.2,610.355,434.073,637.278Z" transform="translate(-228.405 -319.339)" opacity="0.1"/>
        <ellipse id="Ellipse_30" data-name="Ellipse 30" cx="18.523" cy="11.774" rx="18.523" ry="11.774" transform="translate(186.313 241.254) rotate(-17.052)" fill="#d0cde1"/>
        <circle id="Ellipse_31" data-name="Ellipse 31" cx="10.41" cy="10.41" r="10.41" transform="translate(4.818 141.441)" fill="#3f3d56"/>
        <circle id="Ellipse_32" data-name="Ellipse 32" cx="10.41" cy="10.41" r="10.41" transform="translate(513.266 341.423)" fill="#3f3d56"/>
        <circle id="Ellipse_33" data-name="Ellipse 33" cx="8.218" cy="8.218" r="8.218" transform="translate(52.485 144.728)" fill="#4885ec"/>
        <circle id="Ellipse_34" data-name="Ellipse 34" cx="8.218" cy="8.218" r="8.218" transform="translate(515.458 144.728)" fill="#4885ec"/>
        <circle id="Ellipse_35" data-name="Ellipse 35" cx="8.218" cy="8.218" r="8.218" transform="translate(7.009 342.519)" fill="#4885ec"/>
    </g>
</svg>
