<svg id="Group_13" data-name="Group 13" xmlns="http://www.w3.org/2000/svg" width="367.209" height="350.618" viewBox="0 0 367.209 350.618">
    <path id="Path_205" data-name="Path 205" d="M903.5,270.061V250.375h-3.061v19.686a4.081,4.081,0,1,0,3.061,0Z" transform="translate(-562.306 -176.91)" fill="#e6e6e6"/>
    <path id="Path_206" data-name="Path 206" d="M856.759,434.443H835.842V180.375h-8.163V434.443H806.762a18.877,18.877,0,0,0-18.876,18.876h87.75a18.876,18.876,0,0,0-18.877-18.876Z" transform="translate(-508.426 -142.622)" fill="#e6e6e6"/>
    <path id="Path_207" data-name="Path 207" d="M787.968,181.881h87.666l-5.361-67.006a9.284,9.284,0,0,0-9.207-8.5H802.535a9.284,9.284,0,0,0-9.207,8.5Z" transform="translate(-508.467 -106.375)" fill="#4885ec"/>
    <path id="Path_208" data-name="Path 208" d="M301.213,409.231H568.789V381.913c0-73.771-60.018-133.788-133.788-133.788S301.213,308.143,301.213,381.913Z" transform="translate(-270.042 -175.808)" fill="#3f3d56"/>
    <path id="Path_209" data-name="Path 209" d="M301.213,409.231H568.789V381.913c0-73.771-60.018-133.788-133.788-133.788S301.213,308.143,301.213,381.913Z" transform="translate(-270.042 -175.808)" opacity="0.2"/>
    <path id="Path_210" data-name="Path 210" d="M369.188,543.44H575.111a41.374,41.374,0,0,0-41.321-40.627H410.509A41.374,41.374,0,0,0,369.188,543.44Z" transform="translate(-303.338 -300.56)" fill="#4885ec"/>
    <circle id="Ellipse_36" data-name="Ellipse 36" cx="41.327" cy="41.327" r="41.327" transform="translate(0 156.022)" fill="#3f3d56"/>
    <circle id="Ellipse_37" data-name="Ellipse 37" cx="41.327" cy="41.327" r="41.327" transform="translate(250.765 156.022)" fill="#3f3d56"/>
    <path id="Path_211" data-name="Path 211" d="M527.266,534.392V549.8H336.39v-15.41H293.662V609.5a17.352,17.352,0,0,0,17.352,17.352H552.642A17.352,17.352,0,0,0,569.994,609.5V534.392Z" transform="translate(-266.344 -316.028)" fill="#3f3d56"/>
    <circle id="Ellipse_38" data-name="Ellipse 38" cx="8.406" cy="8.406" r="8.406" transform="translate(32.922 188.944)" opacity="0.2"/>
    <circle id="Ellipse_39" data-name="Ellipse 39" cx="8.406" cy="8.406" r="8.406" transform="translate(283.687 188.944)" opacity="0.2"/>
    <path id="Path_212" data-name="Path 212" d="M571.872,238.617s.826,15.7,6.611,19.006,0,25.617,0,25.617l-27.269.827-1.653-26.443s3.305-10.742,1.653-15.7S571.872,238.617,571.872,238.617Z" transform="translate(-391.689 -171.021)" fill="#ffb8b8"/>
    <path id="Path_213" data-name="Path 213" d="M403.587,560.1l-9.916,11.569,15.7,14.874,8.263-16.527Z" transform="translate(-192.83 -274.352)" fill="#ffb8b8"/>
    <path id="Path_214" data-name="Path 214" d="M261.944,560.1l9.916,11.569-15.7,14.874L247.9,570.018Z" transform="translate(-121.425 -274.352)" fill="#ffb8b8"/>
    <path id="Path_215" data-name="Path 215" d="M598.266,445.517s59.5,19.832,56.191,38.838-28.922,85.94-28.922,85.94-14.048,0-24.79-14.874l7.437-16.527s-3.305-9.09,2.479-10.742,9.09-30.575,9.09-30.575-42.143-3.305-51.233-19.006l-16.527-39.664Z" transform="translate(-392.879 -269.257)" fill="#2f2e41"/>
    <path id="Path_216" data-name="Path 216" d="M472,445.517s-59.5,19.833-56.191,38.838,28.922,85.94,28.922,85.94,14.048,0,24.79-14.874l-7.437-16.527s3.305-9.09-2.479-10.742-9.09-30.575-9.09-30.575,42.143-3.305,51.233-19.006l16.527-39.664Z" transform="translate(-326.108 -269.257)" fill="#2f2e41"/>
    <path id="Path_217" data-name="Path 217" d="M637.559,686.744s8.263-7.437,9.09-1.653-.826,28.922-.826,28.922,8.263,17.353-4.132,17.353-18.18-13.221-16.527-26.443-5.784-18.18-5.784-18.18-9.09-18.179,0-19.832,12.4,2.479,12.4,2.479S628.469,684.265,637.559,686.744Z" transform="translate(-423.909 -380.749)" fill="#2f2e41"/>
    <path id="Path_218" data-name="Path 218" d="M499.353,686.744s-8.263-7.437-9.09-1.653.826,28.922.826,28.922-8.264,17.353,4.132,17.353,18.179-13.221,16.527-26.443,5.784-18.18,5.784-18.18,9.09-18.179,0-19.832-12.4,2.479-12.4,2.479S508.443,684.266,499.353,686.744Z" transform="translate(-361.727 -380.749)" fill="#2f2e41"/>
    <circle id="Ellipse_40" data-name="Ellipse 40" cx="19.006" cy="19.006" r="19.006" transform="translate(148.369 39.088)" fill="#ffb8b8"/>
    <path id="Path_219" data-name="Path 219" d="M522.225,275.5l-11.569-9.09-28.1,13.221-.826,75.2s-17.353,8.263-12.4,19.006c0,0,14.874,3.305,21.485,9.916s43.8-2.479,59.5-7.437,19.832-10.742,19.832-10.742l-15.7-22.311,9.09-57.018L535.45,267.352Z" transform="translate(-351.959 -184.763)" fill="#e6e6e6"/>
    <path id="Path_220" data-name="Path 220" d="M565.509,178.351a16.682,16.682,0,0,1-1.133-1.759c-.589-1.435.341-3.127-.528-4.467-.888-1.368-3.142-1.657-4.676-2.586-2.363-1.432-2.792-4.241-5.006-5.819a10.018,10.018,0,0,0-6-1.378c-2.131.065-4.234.45-6.366.492a19.193,19.193,0,0,1-8.355-1.709l1.573,3.077a15.7,15.7,0,0,1-4.937-2c-.7.863.577,2.173-.212,2.982a2.532,2.532,0,0,1-1.114.517,26.654,26.654,0,0,0-8.437,4.116,4.24,4.24,0,0,0-1.42,1.5c-.41.909-.046,1.912-.078,2.878-.056,1.755-1.4,3.286-2.347,4.867s-1.464,3.631-.054,4.974a12.816,12.816,0,0,1,.985.869c1.413,1.667-1.088,4.108.117,5.877a6.259,6.259,0,0,0,2.529,1.61,10.1,10.1,0,0,1,4.323,3.853l-.725-5.32a.878.878,0,0,1,.144-.775c.351-.358,1.086-.215,1.571-.452a1.3,1.3,0,0,0,.552-1.36l-.163-3.863c-.073-1.737-.094-1.968,1.186-3.37a8.3,8.3,0,0,1,3.712-2.005,51.643,51.643,0,0,1,10.128-1.672c3.984-.39,8.47-2.323,11.564-.271,2.533,1.68,3.375,4.442,4.6,6.891,1.1,2.2,3.912,8.683,6.256,5.175C564.664,187.017,566.915,180.8,565.509,178.351Z" transform="translate(-375.028 -133.193)" fill="#2f2e41"/>
    <path id="Path_221" data-name="Path 221" d="M574.3,209.438a.3.3,0,0,0-.3.3v7.957a.3.3,0,0,0,.3.3H588a.3.3,0,0,0,.3-.3v-7.957a.3.3,0,0,0-.3-.3Z" transform="translate(-403.662 -156.858)" fill="#3f3d56"/>
    <path id="Path_222" data-name="Path 222" d="M577.055,210.813a.551.551,0,0,0-.55.55v6.044a.551.551,0,0,0,.55.55h10.636a.551.551,0,0,0,.55-.55v-6.043a.551.551,0,0,0-.55-.55Z" transform="translate(-404.887 -157.531)" fill="#ff6584"/>
    <rect id="Rectangle_184" data-name="Rectangle 184" width="7.135" height="1.653" transform="translate(163.656 55.202)" fill="#3f3d56"/>
    <path id="Path_223" data-name="Path 223" d="M536.279,209.438a.3.3,0,0,0-.3.3v7.957a.3.3,0,0,0,.3.3h13.7a.3.3,0,0,0,.3-.3v-7.957a.3.3,0,0,0-.3-.3Z" transform="translate(-385.039 -156.858)" fill="#3f3d56"/>
    <path id="Path_224" data-name="Path 224" d="M539.034,210.813a.551.551,0,0,0-.551.55v6.044a.551.551,0,0,0,.551.55h10.636a.551.551,0,0,0,.551-.55v-6.043a.551.551,0,0,0-.551-.55Z" transform="translate(-386.263 -157.531)" fill="#4885ec"/>
    <path id="Path_225" data-name="Path 225" d="M274.911,297.75h47.446a7.142,7.142,0,0,1,7.142,7.142H267.769A7.142,7.142,0,0,1,274.911,297.75Z" transform="translate(-131.16 -145.845)" fill="#3f3d56"/>
    <path id="Path_226" data-name="Path 226" d="M567.731,394.781a2.532,2.532,0,0,0-.816.139,1.528,1.528,0,0,0-3.01.371c0,.008,0,.015,0,.022a2.625,2.625,0,0,0-.563.117,1.536,1.536,0,0,0-.757-.975,2.559,2.559,0,0,0,1.1-1.208,2.051,2.051,0,1,0-.042-4.078,2.531,2.531,0,0,0-.816.139,1.526,1.526,0,1,0-2.933.829c-.061.042-.118.09-.175.138a1.449,1.449,0,0,0-1.043-.347,2.541,2.541,0,0,0-4.94.791,2.612,2.612,0,0,0-.6.12,1.535,1.535,0,0,0-.088-.252,1.917,1.917,0,0,0,.649-1.418,2.18,2.18,0,0,0-2.3-2.041,2.531,2.531,0,0,0-.816.139,1.525,1.525,0,1,0-2.933.829,2.544,2.544,0,0,0-1.09,1.974c-.022.019-.046.035-.067.055a1.813,1.813,0,0,0,.059-.446,2.179,2.179,0,0,0-2.3-2.041,2.53,2.53,0,0,0-.816.139,1.526,1.526,0,1,0-2.933.829,2.544,2.544,0,0,0,0,4.186,1.392,1.392,0,0,0,0,.916,2.577,2.577,0,0,0-.653.659,1.521,1.521,0,0,0-2.98.258,2.429,2.429,0,0,0-.656-.265,2.565,2.565,0,0,0,.937-1.113,2.051,2.051,0,1,0-.042-4.078,2.531,2.531,0,0,0-.816.139,1.526,1.526,0,1,0-2.933.829c-.033.023-.062.049-.094.074-.08-.007-.157-.021-.239-.021a2.531,2.531,0,0,0-.816.139c-.01-.039-.026-.074-.038-.112a1.5,1.5,0,0,0-1.562-1.82,2.548,2.548,0,1,0-4.005,2.839,2.64,2.64,0,0,0-.517.113,1.517,1.517,0,0,0-2.429-.821,2.386,2.386,0,0,0-1.857-.849,2.531,2.531,0,0,0-.816.139,1.526,1.526,0,1,0-2.933.829,2.545,2.545,0,0,0-1.1,2.093c0,.008,0,.015,0,.023a2.115,2.115,0,0,0-1.073.116,1.525,1.525,0,1,0-2.933.829,4.3,4.3,0,0,0,6.811,5.229,15.9,15.9,0,0,0,5.511-.248,2.542,2.542,0,0,0,4.733.17,2.5,2.5,0,0,0,1.07-.265,2.539,2.539,0,0,0,4.542-.245,2.471,2.471,0,0,1,2.764,1.534,3.979,3.979,0,0,1,2.93-1.622,2.487,2.487,0,0,0,2.762-1.055,2.55,2.55,0,0,0,4.808,1.653,2.5,2.5,0,0,0,1.07-.265,2.539,2.539,0,0,0,4.542-.245,2.5,2.5,0,0,0,1.07-.265,5.468,5.468,0,0,1,5.707,2.754,4.6,4.6,0,0,1,4.8-.527,2.533,2.533,0,0,0,1.687-1.452,2.051,2.051,0,1,0-.042-4.078Zm-45.6-1.053c0,.012,0,.025-.007.037-.019,0-.036,0-.055,0a1.523,1.523,0,0,0-.227.023c0-.009.01-.017.014-.027a2.545,2.545,0,0,0,.276-.029Zm21.315-.849c-.007-.03-.02-.057-.029-.086a2.563,2.563,0,0,0,.887-1.077,2.388,2.388,0,0,0,1.774-.8,1.533,1.533,0,0,0-.03.3,1.511,1.511,0,0,0,.077.458,2.56,2.56,0,0,0-.948,1.243,2.5,2.5,0,0,0-1.731-.032Zm15.28.19c0-.031,0-.064,0-.095a1.529,1.529,0,0,0,.194-.013,2.528,2.528,0,0,0,.486.9c-.048.013-.1.022-.146.038a1.538,1.538,0,0,0-.536-.83Z" transform="translate(-373.217 -243.387)" fill="#f9a825"/>
    <path id="Path_227" data-name="Path 227" d="M512.843,409.125a5.327,5.327,0,0,0-5.32,5.613l3.455,47.505a5.327,5.327,0,0,0,5.32,5.042h44.544a5.327,5.327,0,0,0,5.32-5.043l3.455-47.5a5.327,5.327,0,0,0-5.32-5.613Z" transform="translate(-371.095 -254.669)" fill="#3f3d56"/>
    <rect id="Rectangle_185" data-name="Rectangle 185" width="3.061" height="58.16" transform="translate(144.262 154.456)" fill="#4885ec"/>
    <rect id="Rectangle_186" data-name="Rectangle 186" width="3.061" height="58.16" transform="translate(152.935 154.456)" fill="#4885ec"/>
    <rect id="Rectangle_187" data-name="Rectangle 187" width="3.061" height="58.16" transform="translate(161.608 154.456)" fill="#4885ec"/>
    <rect id="Rectangle_188" data-name="Rectangle 188" width="3.061" height="58.16" transform="translate(170.281 154.456)" fill="#4885ec"/>
    <rect id="Rectangle_189" data-name="Rectangle 189" width="3.061" height="58.16" transform="translate(178.954 154.456)" fill="#4885ec"/>
    <rect id="Rectangle_190" data-name="Rectangle 190" width="3.061" height="58.16" transform="translate(187.627 154.456)" fill="#4885ec"/>
    <path id="Path_228" data-name="Path 228" d="M585.629,465.632l-9.916,5.784s-23.964,19.832-7.437,23.138,20.659-14.048,20.659-14.048l5.784-6.611Z" transform="translate(-398.009 -282.348)" fill="#ffb8b8"/>
    <path id="Path_229" data-name="Path 229" d="M506.82,457.533l9.916,5.784s23.964,19.832,7.437,23.138-20.659-14.048-20.659-14.048L497.73,465.8Z" transform="translate(-366.301 -278.381)" fill="#ffb8b8"/>
    <path id="Path_230" data-name="Path 230" d="M616.307,303.66l10.742.826s8.263,7.437,7.437,17.353c0,0,7.437,21.485,5.784,30.575,0,0,1.653,14.874-.826,20.659s-23.138,28.1-23.138,28.1-19.006-14.874-18.18-15.7l24.79-24.79-12.4-16.527Z" transform="translate(-415.465 -203.01)" fill="#e6e6e6"/>
    <path id="Path_231" data-name="Path 231" d="M472.584,292.322l-.413.413s-18.593,7.85-17.766,17.766c0,0-7.437,21.485-5.784,30.575,0,0-1.653,14.874.826,20.659s23.138,28.1,23.138,28.1,19.006-14.874,18.18-15.7l-24.79-24.79,12.4-16.527Z" transform="translate(-341.982 -197.456)" fill="#e6e6e6"/>
</svg>
