<svg xmlns="http://www.w3.org/2000/svg" xmlns:xlink="http://www.w3.org/1999/xlink" width="333.36" height="192.244" viewBox="0 0 333.36 192.244">
    <defs>
        <clipPath id="clip-path">
            <path id="Path_164" data-name="Path 164" d="M631.162,273.828l-2.6-6.34-34.7,14.248A4.287,4.287,0,0,0,591.2,285.7v37.5h6.855V287.429Z" transform="translate(-591.198 -267.488)" fill="none"/>
        </clipPath>
        <linearGradient id="linear-gradient" x1="-6.63" y1="-10.718" x2="0.735" y2="5.92" gradientUnits="objectBoundingBox">
            <stop offset="0" stop-color="#095ae5"/>
            <stop offset="1" stop-color="#a2c4f6"/>
        </linearGradient>
        <linearGradient id="linear-gradient-2" x1="2.983" y1="8.617" x2="2.983" y2="9.617" gradientUnits="objectBoundingBox">
            <stop offset="0" stop-opacity="0.122"/>
            <stop offset="0.55" stop-opacity="0.09"/>
            <stop offset="1" stop-opacity="0.02"/>
        </linearGradient>
    </defs>
    <g id="Group_42" data-name="Group 42" transform="translate(-1326.82 -788.378)">
        <path id="Path_160" data-name="Path 160" d="M6.338,192.036H115.982a5.382,5.382,0,0,1,5.382,5.382v8.549H.955v-8.549a5.382,5.382,0,0,1,5.382-5.382Z" transform="translate(1326.231 670.167)" fill="#3f3d56"/>
        <path id="Path_161" data-name="Path 161" d="M286.662,362.278a4.936,4.936,0,0,0-1.591.271,2.98,2.98,0,0,0-5.872.724c0,.015,0,.029,0,.043a5.117,5.117,0,0,0-1.1.228,3,3,0,0,0-1.476-1.9,4.993,4.993,0,0,0,2.154-2.357,4,4,0,1,0-.081-7.954,4.936,4.936,0,0,0-1.591.271,2.976,2.976,0,1,0-5.721,1.617c-.119.083-.23.176-.341.268a2.826,2.826,0,0,0-2.035-.677,4.956,4.956,0,0,0-9.636,1.543,5.1,5.1,0,0,0-1.174.234,2.986,2.986,0,0,0-.172-.491,3.739,3.739,0,0,0,1.265-2.765,4.251,4.251,0,0,0-4.478-3.98,4.937,4.937,0,0,0-1.591.271,2.976,2.976,0,1,0-5.721,1.617,4.963,4.963,0,0,0-2.127,3.85c-.042.037-.09.068-.13.107a3.546,3.546,0,0,0,.116-.87,4.251,4.251,0,0,0-4.478-3.98,4.936,4.936,0,0,0-1.591.271,2.976,2.976,0,1,0-5.721,1.617,4.963,4.963,0,0,0,0,8.165,2.714,2.714,0,0,0,0,1.786,5.025,5.025,0,0,0-1.273,1.285,2.967,2.967,0,0,0-5.813.5,4.741,4.741,0,0,0-1.279-.517,5,5,0,0,0,1.827-2.171,4,4,0,1,0-.081-7.954,4.938,4.938,0,0,0-1.591.271,2.976,2.976,0,1,0-5.721,1.617c-.064.044-.121.1-.183.144-.155-.014-.306-.042-.466-.042a4.938,4.938,0,0,0-1.591.271c-.019-.075-.05-.145-.074-.217a2.932,2.932,0,0,0-3.047-3.55,4.971,4.971,0,1,0-7.812,5.538,5.151,5.151,0,0,0-1.008.22,2.958,2.958,0,0,0-4.739-1.6,4.653,4.653,0,0,0-3.621-1.656,4.938,4.938,0,0,0-1.591.271,2.976,2.976,0,1,0-5.721,1.617,4.965,4.965,0,0,0-2.141,4.083c0,.015,0,.03,0,.045a4.127,4.127,0,0,0-2.093.226,2.976,2.976,0,1,0-5.721,1.617,4.955,4.955,0,0,0,3.916,8.926,4.958,4.958,0,0,0,9.368,1.273,4.959,4.959,0,0,0,9.036-.153,4.952,4.952,0,0,0,1.714-.332,4.958,4.958,0,0,0,9.233.332,4.868,4.868,0,0,0,2.087-.516,4.953,4.953,0,0,0,8.859-.479,5.017,5.017,0,0,0,.8-.083,4.971,4.971,0,0,0,9.155.083,4.955,4.955,0,0,0,1.156-.171,4.851,4.851,0,0,0,5.388-2.058,4.973,4.973,0,0,0,9.377,3.223,4.868,4.868,0,0,0,2.087-.516,4.953,4.953,0,0,0,8.859-.479,4.867,4.867,0,0,0,2.087-.516,4.924,4.924,0,0,0,7.376,1.43,4.954,4.954,0,0,0,8.863,2.055,4.942,4.942,0,0,0,7.547-1.973,4,4,0,1,0-.081-7.954Zm-88.942-2.054c-.005.024-.009.049-.014.073-.036,0-.071-.009-.107-.009a2.956,2.956,0,0,0-.443.045c.008-.018.019-.034.027-.052a4.951,4.951,0,0,0,.537-.056Zm41.575-1.656c-.015-.058-.039-.111-.057-.168a5,5,0,0,0,1.73-2.1,4.659,4.659,0,0,0,3.46-1.567,3,3,0,0,0-.058.579,2.953,2.953,0,0,0,.151.893,4.994,4.994,0,0,0-1.85,2.425,4.883,4.883,0,0,0-3.376-.062Zm29.8.371c0-.061.006-.124,0-.184a2.969,2.969,0,0,0,.379-.026,4.932,4.932,0,0,0,.948,1.756c-.094.026-.193.042-.284.073a3,3,0,0,0-1.044-1.619Z" transform="translate(1153.471 498.93)" fill="#f9a825"/>
        <path id="Path_162" data-name="Path 162" d="M176.838,404.95A10.39,10.39,0,0,0,166.462,415.9l6.738,92.66a10.39,10.39,0,0,0,10.376,9.835h86.884a10.39,10.39,0,0,0,10.376-9.836l6.738-92.659A10.39,10.39,0,0,0,277.2,404.95Z" transform="translate(1160.373 462.229)" fill="#3f3d56"/>
        <rect id="Rectangle_36" data-name="Rectangle 36" width="5.971" height="113.443" transform="translate(1342.113 867.179)" fill="#4885ec"/>
        <rect id="Rectangle_37" data-name="Rectangle 37" width="5.971" height="113.443" transform="translate(1359.03 867.179)" fill="#4885ec"/>
        <rect id="Rectangle_38" data-name="Rectangle 38" width="5.971" height="113.443" transform="translate(1375.947 867.179)" fill="#4885ec"/>
        <rect id="Rectangle_39" data-name="Rectangle 39" width="5.971" height="113.443" transform="translate(1392.864 867.179)" fill="#4885ec"/>
        <rect id="Rectangle_40" data-name="Rectangle 40" width="5.971" height="113.443" transform="translate(1409.781 867.179)" fill="#4885ec"/>
        <rect id="Rectangle_41" data-name="Rectangle 41" width="5.971" height="113.443" transform="translate(1426.698 867.179)" fill="#4885ec"/>
        <path id="_2572ddba-42e8-4159-9036-35cbff74dfb7" data-name="2572ddba-42e8-4159-9036-35cbff74dfb7" d="M631.162,273.828l-2.6-6.34-34.7,14.248A4.287,4.287,0,0,0,591.2,285.7v37.5h6.855V287.429Z" transform="translate(898.918 546.843)" fill="#3f3d56"/>
        <g id="Group_5" data-name="Group 5" transform="translate(1490.116 814.331)" clip-path="url(#clip-path)">
            <rect id="Rectangle_42" data-name="Rectangle 42" width="7.474" height="23.671" transform="translate(28.03 -6.889)" fill="#4885ec"/>
            <rect id="Rectangle_43" data-name="Rectangle 43" width="7.474" height="23.671" transform="translate(16.197 -1.907)" fill="#4885ec"/>
            <path id="Path_163" data-name="Path 163" d="M444.376,77.318l-5.294,1.557L436.9,53.647h7.474Z" transform="translate(-432.231 -58.979)" fill="#4885ec"/>
            <rect id="Rectangle_44" data-name="Rectangle 44" width="23.671" height="7.474" transform="translate(-7.166 21.141)" fill="#4885ec"/>
            <rect id="Rectangle_45" data-name="Rectangle 45" width="23.671" height="7.474" transform="translate(-7.162 31.421)" fill="#4885ec"/>
            <rect id="Rectangle_46" data-name="Rectangle 46" width="23.671" height="7.474" transform="translate(-7.166 41.702)" fill="#4885ec"/>
        </g>
        <path id="Path_165" data-name="Path 165" d="M406.4,320.52H360.616L349.4,208.387h66.967Z" transform="translate(1111.745 660.102)" fill="#3f3d56"/>
        <rect id="Rectangle_47" data-name="Rectangle 47" width="76.621" height="7.474" transform="translate(1456.476 866.621)" fill="#3f3d56"/>
        <circle id="Ellipse_16" data-name="Ellipse 16" cx="25.751" cy="25.751" r="25.751" transform="translate(1585.298 788.448)" fill="url(#linear-gradient)"/>
        <path id="Path_166" data-name="Path 166" d="M742.4,46.894,716.622,59.558V34.23Z" transform="translate(885.703 767.304)" fill="url(#linear-gradient-2)"/>
        <path id="Path_167" data-name="Path 167" d="M743.321,49.325,720.642,60.47V38.18Z" transform="translate(883.229 764.873)" fill="#fff"/>
        <path id="Path_168" data-name="Path 168" d="M840.793,228.758a25.758,25.758,0,0,1,45.6-16.4,25.758,25.758,0,1,0-41.817,29.849A25.627,25.627,0,0,1,840.793,228.758Z" transform="translate(746.611 588.397)" fill="#fff" opacity="0.2"/>
        <path id="Path_169" data-name="Path 169" d="M892.18,614.78a1.134,1.134,0,0,0-1.133,1.132v30.51a1.134,1.134,0,0,0,1.133,1.132H944.7a1.134,1.134,0,0,0,1.133-1.132v-30.51a1.134,1.134,0,0,0-1.133-1.132Z" transform="translate(714.346 333.068)" fill="#3f3d56"/>
        <path id="Path_170" data-name="Path 170" d="M905.883,621.779a2.112,2.112,0,0,0-2.11,2.11v23.173a2.112,2.112,0,0,0,2.11,2.11h40.782a2.112,2.112,0,0,0,2.11-2.11V623.889a2.112,2.112,0,0,0-2.11-2.11Z" transform="translate(706.512 328.76)" fill="#ff6584"/>
        <rect id="Rectangle_48" data-name="Rectangle 48" width="27.358" height="6.337" transform="translate(1579.758 957.898)" fill="#3f3d56"/>
        <path id="Path_171" data-name="Path 171" d="M698.727,614.78a1.134,1.134,0,0,0-1.132,1.132v30.51a1.133,1.133,0,0,0,1.132,1.132h52.522a1.133,1.133,0,0,0,1.132-1.132v-30.51a1.134,1.134,0,0,0-1.132-1.132Z" transform="translate(833.425 333.068)" fill="#3f3d56"/>
        <path id="Path_172" data-name="Path 172" d="M712.429,621.779a2.113,2.113,0,0,0-2.111,2.11v23.173a2.113,2.113,0,0,0,2.111,2.11h40.781a2.113,2.113,0,0,0,2.111-2.11V623.889a2.112,2.112,0,0,0-2.111-2.11Z" transform="translate(825.593 328.76)" fill="#4885ec"/>
    </g>
</svg>
