<svg xmlns="http://www.w3.org/2000/svg" xmlns:xlink="http://www.w3.org/1999/xlink" width="467.209" height="371.433" viewBox="0 0 467.209 371.433">
    <defs>
        <linearGradient id="linear-gradient" x1="0.5" y1="1" x2="0.5" gradientUnits="objectBoundingBox">
            <stop offset="0" stop-color="gray" stop-opacity="0.251"/>
            <stop offset="0.54" stop-color="gray" stop-opacity="0.122"/>
            <stop offset="1" stop-color="gray" stop-opacity="0.102"/>
        </linearGradient>
    </defs>
    <g id="Group_4" data-name="Group 4" transform="translate(0 -0.008)">
        <g id="Group_45" data-name="Group 45">
            <g id="Group_44" data-name="Group 44">
                <path id="Path_14" data-name="Path 14" d="M369.809,120.324c-29.563-1.028-57.723-10.57-84.608-21.012S231.685,77.3,202.831,71.768c-18.559-3.558-39.785-4.061-54.735,5.888-14.393,9.592-19.043,26.1-21.542,41.443-1.882,11.538-2.987,23.679,2.17,34.482,3.577,7.5,9.93,13.8,14.32,21.012,15.288,24.995,4.486,55.818-12.082,80.223-7.765,11.451-16.786,22.382-22.779,34.56s-8.77,26.15-3.526,38.584c5.2,12.333,17.595,21.578,31.015,28.087,27.265,13.224,59.381,17.006,90.72,19.148,69.352,4.746,139.07,2.69,208.6.635,25.735-.763,51.579-1.535,76.894-5.513,14.06-2.211,28.571-5.714,38.78-14.183,12.954-10.748,16.165-28.95,7.487-42.425-14.567-22.606-54.813-28.22-65.008-52.484-5.6-13.352.155-28.224,8.3-40.612,17.467-26.566,46.742-49.875,48.286-80.242,1.06-20.861-13.018-41.745-34.779-51.616-22.807-10.383-54.443-9.067-71.262,8.058C426.358,114.459,395.91,121.228,369.809,120.324Z" transform="translate(-95.808 -57.55)" fill="#4885ec" opacity="0.1"/>
            </g>
        </g>
        <path id="Path_15" data-name="Path 15" d="M231.04,531.65l-156.345-.763L59.16,494.45l54.932-3.988-9.574-39.95,108.649-14.082-104.04-36.168,9.19-2.183,167.294,27.292L276.4,487.718,263.229,521.98Z" transform="translate(-32.137 -216.243)" fill="#4885ec"/>
        <path id="Path_16" data-name="Path 16" d="M187,698.663s9.592-1.535,15.348,5.244c0,0-4.221,3.325-13.3-1.279Z" transform="translate(-142.044 -399.279)" fill="#4885ec"/>
        <path id="Path_17" data-name="Path 17" d="M180.113,698.51s-6.121,7.532-3.106,15.919c0,0,4.988-2,5.532-12.164Z" transform="translate(-136.162 -399.277)" fill="#4885ec"/>
        <path id="Path_18" data-name="Path 18" d="M172.76,668.5s3.837-7.039,19.185,2.814c0,0-2.046,4.732-8.825,4.349S174.551,672.212,172.76,668.5Z" transform="translate(-134.309 -381.653)" fill="#4885ec"/>
        <path id="Path_19" data-name="Path 19" d="M160.2,670.281s-7.962-.914-8.734,17.312c0,0,5.047,1.046,8.633-4.719S162.218,673.876,160.2,670.281Z" transform="translate(-122.743 -383.938)" fill="#4885ec"/>
        <path id="Path_20" data-name="Path 20" d="M160.44,630.432s4.476-12.406,20.719-3.581c0,0-3.709,11.383-19.057,7.8Z" transform="translate(-127.616 -358.628)" fill="#4885ec"/>
        <path id="Path_21" data-name="Path 21" d="M149.52,590.9s8.441-12.534,23.405-.914c0,0-5.244,11.767-22.126,5.372Z" transform="translate(-121.684 -337.642)" fill="#4885ec"/>
        <path id="Path_22" data-name="Path 22" d="M145.6,553.133s9.848-11.515,24.666,0c0,0-9.337,10.1-24.666,2.942Z" transform="translate(-119.555 -317.525)" fill="#4885ec"/>
        <path id="Path_23" data-name="Path 23" d="M142.24,515.1s9.976-12.022,24.173-.639c0,0-11.255,10.615-24.173,3.453Z" transform="translate(-117.729 -296.638)" fill="#4885ec"/>
        <path id="Path_24" data-name="Path 24" d="M144.2,478.1s10.506-15.476,23.789-4.988c0,0-11.255,13.3-23.789,7.93Z" transform="translate(-118.794 -274.856)" fill="#4885ec"/>
        <path id="Path_25" data-name="Path 25" d="M149.52,439.912s11.127-15.348,24.045-3.581c0,0-13.173,13.3-24.045,6.395Z" transform="translate(-121.684 -254.443)" fill="#4885ec"/>
        <path id="Path_26" data-name="Path 26" d="M156.956,402.73s13.173-14.425,24.666-8.679c0,0-13.726,15.32-25.241,12.507Z" transform="translate(-125.411 -233.153)" fill="#4885ec"/>
        <path id="Path_27" data-name="Path 27" d="M166.438,366.252s15.2-17.668,24.045-11.767c0,0-11.2,13.7-25.123,15.074Z" transform="translate(-130.289 -211.739)" fill="#4885ec"/>
        <path id="Path_28" data-name="Path 28" d="M180.146,329.854s13.306-14.425,23.026-10.844c0,0-11.383,14.964-24.812,15.348Z" transform="translate(-137.351 -192.813)" fill="#4885ec"/>
        <path id="Path_29" data-name="Path 29" d="M194.679,293.772s14.708-13.813,21.1-11.383c0,0-10.615,15.348-21.743,14.452Z" transform="translate(-145.868 -173.074)" fill="#4885ec"/>
        <path id="Path_30" data-name="Path 30" d="M208.32,256.42s12.662-16.5,19.573-15.224c0,0-7.678,14.713-19.573,16.9Z" transform="translate(-153.626 -150.814)" fill="#4885ec"/>
        <path id="Path_31" data-name="Path 31" d="M221.751,215.051S232.942,202.4,238.99,202.43c0,0-8.834,16.9-17.7,16.745Z" transform="translate(-160.671 -129.794)" fill="#4885ec"/>
        <path id="Path_32" data-name="Path 32" d="M228.945,169.067l10.812-26.347s.539,23.816-12.187,31.234Z" transform="translate(-164.083 -97.358)" fill="#4885ec"/>
        <path id="Path_33" data-name="Path 33" d="M240.1,108.493s1.791-22,.639-23.793c0,0,7.729,18.294-.713,33.514Z" transform="translate(-170.851 -65.84)" fill="#4885ec"/>
        <path id="Path_34" data-name="Path 34" d="M137.557,636.148S126.348,629.2,119.09,646.2c0,0,9.976,6.623,19.788-5.714Z" transform="translate(-105.154 -364.637)" fill="#4885ec"/>
        <path id="Path_35" data-name="Path 35" d="M124.448,595.031s-13.749-6.272-20.418,11.474c0,0,10.62,7.308,21.669-6.989Z" transform="translate(-96.973 -342.48)" fill="#4885ec"/>
        <path id="Path_36" data-name="Path 36" d="M114.866,555.444s-9.848-11.515-24.666,0c0,0,9.336,10.1,24.666,2.942Z" transform="translate(-89.46 -318.78)" fill="#4885ec"/>
        <path id="Path_37" data-name="Path 37" d="M112.753,515.1s-9.976-12.022-24.173-.639c0,0,11.255,10.615,24.173,3.453Z" transform="translate(-88.58 -296.638)" fill="#4885ec"/>
        <path id="Path_38" data-name="Path 38" d="M117.788,475.366s-7-17.335-22.208-9.88c0,0,8.222,15.37,21.587,12.758Z" transform="translate(-92.383 -271.681)" fill="#4885ec"/>
        <path id="Path_39" data-name="Path 39" d="M124.832,435.437s-6.957-17.636-22.382-9.46c0,0,9.446,16.165,21.7,12.182Z" transform="translate(-96.115 -250.055)" fill="#4885ec"/>
        <path id="Path_40" data-name="Path 40" d="M142.42,389.8s-2.741-19.335-15.53-21.066c0,0,2.713,20.39,13.808,24.552Z" transform="translate(-109.391 -220.132)" fill="#4885ec"/>
        <path id="Path_41" data-name="Path 41" d="M154.583,353.089s-1.069-23.3-11.643-24.109c0,0,.356,17.682,10.451,27.406Z" transform="translate(-118.11 -198.539)" fill="#4885ec"/>
        <path id="Path_42" data-name="Path 42" d="M168.916,316.148s-3.152-19.372-13.247-21.738c0,0,1.252,18.76,12.246,26.493Z" transform="translate(-125.025 -179.76)" fill="#4885ec"/>
        <path id="Path_43" data-name="Path 43" d="M189.557,280.475s-.105-20.18-6.272-23.145c0,0-3.823,18.271,4.486,25.721Z" transform="translate(-139.549 -159.617)" fill="#4885ec"/>
        <path id="Path_44" data-name="Path 44" d="M200.429,245.917s-.863-20.779-7.249-23.707c0,0-2.183,16.444,6.294,25.068Z" transform="translate(-145.264 -140.539)" fill="#4885ec"/>
        <path id="Path_45" data-name="Path 45" d="M217.014,208.876s-.037-16.9-4.6-20.865c0,0-4.531,18.513,2.215,24.264Z" transform="translate(-155.044 -121.961)" fill="#4885ec"/>
        <path id="Path_46" data-name="Path 46" d="M222.12,165.128,217.685,137s-6.025,23.049,4.645,33.208Z" transform="translate(-157.792 -94.251)" fill="#4885ec"/>
        <path id="Path_47" data-name="Path 47" d="M218.036,112.382s-11.383-18.91-11.15-21.012c0,0,1.21,19.819,15.53,29.69Z" transform="translate(-152.845 -69.464)" fill="#4885ec"/>
        <path id="Path_48" data-name="Path 48" d="M215.663,90.613S204.92,63.754,200.06,61.58c0,0,15.348,7.8,16.5,28.265Z" transform="translate(-149.139 -53.281)" fill="#4885ec"/>
        <path id="Path_49" data-name="Path 49" d="M220.3,175.307l-.735-.224c9.067-29.567,11.328-48.418,6.372-53.146l.525-.557C231.715,126.368,229.582,145.014,220.3,175.307Z" transform="translate(-159.732 -85.766)" fill="#444053"/>
        <path id="Path_50" data-name="Path 50" d="M165.217,306.1l-1.087-.388c.964-2.709,2-5.458,3.088-8.167,9.464-23.588,17.522-45.531,22.688-62.377l.946-.457c-5.175,16.878-13.091,39.662-22.565,63.282C167.2,300.65,166.172,303.386,165.217,306.1Z" transform="translate(-129.621 -147.329)" fill="#444053"/>
        <path id="Path_51" data-name="Path 51" d="M174.9,550.687c-.146-.16-14.841-16.709-25.086-44.96a166.347,166.347,0,0,1-9.9-51.515c-.7-21.985,3.91-46.532,11.812-68.832l.859,1c-17.741,50.049-10.693,92.936-1.343,118.762,10.136,28,24.666,44.362,24.807,44.526Z" transform="translate(-116.429 -229.177)" fill="#444053"/>
        <path id="Path_52" data-name="Path 52" d="M604.668,670.36S594.313,683,602.535,702.106l-82.676,35.857-7.934,1.663-3.654-15.987,2.444-20.176V692.436Z" transform="translate(-316.566 -383.985)" fill="#d5d6db"/>
        <path id="Path_53" data-name="Path 53" d="M59.16,584.251,173.591,563.39l151.627,24.154L231.04,621.451Z" transform="translate(-32.137 -306.043)" fill="#4885ec"/>
        <path id="Path_54" data-name="Path 54" d="M59.16,584.251,173.591,563.39l151.627,24.154L231.04,621.451Z" transform="translate(-32.137 -306.043)" fill="#4885ec"/>
        <path id="Path_55" data-name="Path 55" d="M142.617,652.47s-10.7,20.276,1.631,39l169.692,36.77s-10.533-16.152.544-38.57Z" transform="translate(-115.594 -374.267)" fill="#4885ec"/>
        <path id="Path_56" data-name="Path 56" d="M142.617,652.47s-10.7,20.276,1.631,39l169.692,36.77s-10.533-16.152.544-38.57Z" transform="translate(-115.594 -374.267)" opacity="0.1"/>
        <path id="Path_57" data-name="Path 57" d="M155.577,667.86s-6.116,14.836,0,24.438" transform="translate(-123.498 -382.627)" opacity="0.1"/>
        <path id="Path_58" data-name="Path 58" d="M321,770.285l94.735-40.425s5.3,1.142,1.873,5.024-94.781,39.283-94.781,39.283L151.31,733.514Z" transform="translate(-122.656 -416.307)" fill="#4885ec"/>
        <path id="Path_59" data-name="Path 59" d="M321,770.285l94.735-40.425s5.3,1.142,1.873,5.024-94.781,39.283-94.781,39.283L151.31,733.514Z" transform="translate(-122.656 -416.307)" opacity="0.1"/>
        <path id="Path_60" data-name="Path 60" d="M500.981,742.86s-9.135,10.963,0,27.406" transform="translate(-310.401 -423.369)" opacity="0.1"/>
        <rect id="Rectangle_16" data-name="Rectangle 16" width="43.197" height="0.457" transform="translate(193.833 332.976) rotate(-18.45)" opacity="0.1"/>
        <rect id="Rectangle_17" data-name="Rectangle 17" width="52.634" height="0.457" transform="translate(193.817 336.653) rotate(-20.82)" opacity="0.1"/>
        <rect id="Rectangle_18" data-name="Rectangle 18" width="61.007" height="0.457" transform="translate(194.092 340.988) rotate(-22.26)" opacity="0.1"/>
        <rect id="Rectangle_19" data-name="Rectangle 19" width="70.225" height="0.457" transform="translate(194.751 344.811) rotate(-24.31)" opacity="0.1"/>
        <rect id="Rectangle_20" data-name="Rectangle 20" width="76.807" height="0.457" transform="matrix(0.916, -0.401, 0.401, 0.916, 195.259, 346.671)" opacity="0.1"/>
        <rect id="Rectangle_21" data-name="Rectangle 21" width="91.912" height="0.457" transform="translate(196.321 349.795) rotate(-23.36)" opacity="0.1"/>
        <path id="Path_61" data-name="Path 61" d="M152.23,593.841l80.392-16.9L281.6,586.3l-65.876,21.24Z" transform="translate(-82.695 -313.404)" fill="#fff" opacity="0.3"/>
        <path id="Path_62" data-name="Path 62" d="M618.192,659.69s4.157,1.676,1.718,4.266S524,693.6,524,693.6Z" transform="translate(-325.111 -378.189)" fill="#4885ec"/>
        <path id="Path_63" data-name="Path 63" d="M703.963,574.18s-10.351,12.634-2.129,31.746l-82.676,35.857-7.934,1.672-3.654-15.987,2.48-20.171v-11.04Z" transform="translate(-370.508 -331.738)" fill="#d5d6db"/>
        <path id="Path_64" data-name="Path 64" d="M158.46,488.066,272.887,467.21l151.631,24.154L330.34,525.271Z" transform="translate(-86.079 -253.796)" fill="#3a3768"/>
        <path id="Path_65" data-name="Path 65" d="M241.873,556.29s-10.707,20.276,1.626,39l169.692,36.77s-10.529-16.165.562-38.575Z" transform="translate(-169.511 -322.019)" fill="#3a3768"/>
        <path id="Path_66" data-name="Path 66" d="M241.873,556.29s-10.707,20.276,1.626,39l169.692,36.77s-10.529-16.165.562-38.575l-53.662-11.616Z" transform="translate(-169.511 -322.019)" opacity="0.1"/>
        <path id="Path_67" data-name="Path 67" d="M254.87,571.68s-6.112,14.831,0,24.437" transform="translate(-177.437 -330.38)" opacity="0.1"/>
        <path id="Path_68" data-name="Path 68" d="M420.292,674.1l94.74-40.425s5.294,1.142,1.868,5.025-94.781,39.283-94.781,39.283L250.6,637.334Z" transform="translate(-176.593 -364.06)" fill="#3a3768"/>
        <path id="Path_69" data-name="Path 69" d="M420.292,674.1l94.74-40.425s5.294,1.142,1.868,5.025-94.781,39.283-94.781,39.283L250.6,637.334Z" transform="translate(-176.593 -364.06)" opacity="0.1"/>
        <path id="Path_70" data-name="Path 70" d="M600.271,646.68s-9.136,10.963,0,27.406" transform="translate(-364.338 -371.122)" opacity="0.1"/>
        <rect id="Rectangle_22" data-name="Rectangle 22" width="43.197" height="0.457" transform="translate(239.189 289.048) rotate(-18.45)" opacity="0.1"/>
        <rect id="Rectangle_23" data-name="Rectangle 23" width="52.634" height="0.457" transform="translate(239.18 292.724) rotate(-20.82)" opacity="0.1"/>
        <rect id="Rectangle_24" data-name="Rectangle 24" width="61.007" height="0.457" transform="translate(239.448 297.052) rotate(-22.26)" opacity="0.1"/>
        <rect id="Rectangle_25" data-name="Rectangle 25" width="70.225" height="0.457" transform="translate(240.112 300.876) rotate(-24.31)" opacity="0.1"/>
        <rect id="Rectangle_26" data-name="Rectangle 26" width="76.807" height="0.457" transform="matrix(0.916, -0.401, 0.401, 0.916, 240.613, 302.73)" opacity="0.1"/>
        <rect id="Rectangle_27" data-name="Rectangle 27" width="91.912" height="0.457" transform="translate(241.679 305.854) rotate(-23.36)" opacity="0.1"/>
        <path id="Path_71" data-name="Path 71" d="M251.53,497.661l80.392-16.9,48.975,9.364-65.876,21.24Z" transform="translate(-136.637 -261.157)" fill="#fff" opacity="0.45"/>
        <path id="Path_72" data-name="Path 72" d="M717.508,563.51s4.152,1.676,1.717,4.262-95.9,29.64-95.9,29.64Z" transform="translate(-379.069 -325.942)" fill="#3a3768"/>
        <path id="Path_73" data-name="Path 73" d="M713.38,464.15s-10.355,22.688-2.133,41.795L628.57,531.753l-7.916,1.676L617,517.442l2.444-20.176v-11.04Z" transform="translate(-375.631 -271.967)" fill="#d5d6db"/>
        <path id="Path_74" data-name="Path 74" d="M167.89,378.041,282.321,357.18l151.631,24.154L339.77,415.241Z" transform="translate(-91.202 -194.025)" fill="#4885ec"/>
        <path id="Path_75" data-name="Path 75" d="M251.332,446.26s-10.721,20.276,1.612,39l169.692,36.77s-10.533-16.165.557-38.57Z" transform="translate(-174.644 -262.249)" fill="#4885ec"/>
        <path id="Path_76" data-name="Path 76" d="M251.332,446.26s-10.721,20.276,1.612,39l169.692,36.77s-10.533-16.165.557-38.57Z" transform="translate(-174.644 -262.249)" opacity="0.1"/>
        <path id="Path_77" data-name="Path 77" d="M264.307,461.65s-6.116,14.836,0,24.438" transform="translate(-182.563 -270.609)" opacity="0.1"/>
        <path id="Path_78" data-name="Path 78" d="M429.732,568.42l94.735-30.375s5.3,1.142,1.873,5.024S431.559,572.3,431.559,572.3L260.04,531.65Z" transform="translate(-181.721 -308.634)" fill="#4885ec"/>
        <path id="Path_79" data-name="Path 79" d="M429.732,568.42l94.735-30.375s5.3,1.142,1.873,5.024S431.559,572.3,431.559,572.3L260.04,531.65Z" transform="translate(-181.721 -308.634)" opacity="0.1"/>
        <path id="Path_80" data-name="Path 80" d="M609.711,536.65s-9.135,10.963,0,27.407" transform="translate(-369.466 -311.351)" opacity="0.1"/>
        <rect id="Rectangle_28" data-name="Rectangle 28" width="43.197" height="0.457" transform="translate(243.503 238.788) rotate(-18.45)" opacity="0.1"/>
        <rect id="Rectangle_29" data-name="Rectangle 29" width="52.634" height="0.457" transform="translate(243.49 242.466) rotate(-20.82)" opacity="0.1"/>
        <rect id="Rectangle_30" data-name="Rectangle 30" width="61.007" height="0.457" transform="translate(243.754 246.797) rotate(-22.26)" opacity="0.1"/>
        <rect id="Rectangle_31" data-name="Rectangle 31" width="70.225" height="0.457" transform="translate(244.424 250.616) rotate(-24.31)" opacity="0.1"/>
        <rect id="Rectangle_32" data-name="Rectangle 32" width="76.807" height="0.457" transform="matrix(0.916, -0.401, 0.401, 0.916, 244.928, 252.475)" opacity="0.1"/>
        <rect id="Rectangle_33" data-name="Rectangle 33" width="91.912" height="0.457" transform="translate(245.992 255.602) rotate(-23.36)" opacity="0.1"/>
        <path id="Path_81" data-name="Path 81" d="M260.96,387.631l80.392-16.9,48.975,9.364-65.876,21.24Z" transform="translate(-141.76 -201.386)" fill="#fff" opacity="0.3"/>
        <path id="Path_82" data-name="Path 82" d="M726.938,453.48s4.157,1.676,1.718,4.266-95.9,29.64-95.9,29.64Z" transform="translate(-384.192 -266.171)" fill="#4885ec"/>
        <path id="Path_83" data-name="Path 83" d="M380.573,149.893s-17.357-1.046-15.329,11.132a2.971,2.971,0,0,0,1.544,3.129s.032-.914,1.781-.6a7.788,7.788,0,0,0,1.891.091,3.938,3.938,0,0,0,2.307-.95h0s4.883-2.019,6.783-10c0,0,1.407-1.74,1.37-2.188l-2.942,1.252a5.27,5.27,0,0,1,.215,3.873s-.1-3.8-.662-3.709c-.114,0-1.521.735-1.521.735s1.722,3.686.42,6.363c0,0,.493-4.54-.959-6.1l-2.065,1.206s2.014,3.8.649,6.911c0,0,.352-4.764-1.083-6.619l-1.873,1.462s1.9,3.75.74,6.326c0,0-.151-5.545-1.142-5.965a11.287,11.287,0,0,0-1.886,2.037s1.3,2.741.489,4.161c0,0-.489-3.7-.914-3.714a12.3,12.3,0,0,0-1.8,4.111,8.889,8.889,0,0,1,1.4-4.358,4.892,4.892,0,0,0-2.494,1.293s.251-1.731,2.9-1.882a11.231,11.231,0,0,1,1.708-1.969,10.693,10.693,0,0,0-4.23.484s1.407-1.631,4.709-.914l1.827-1.507s-3.462-.457-4.933.05c0,0,1.695-1.443,5.431-.393l2.014-1.2a18.3,18.3,0,0,0-4.714-.407s1.854-1,5.3.082l1.434-.644s-2.161-.425-2.8-.493-.667-.242-.667-.242a7.541,7.541,0,0,1,4.065.457A18.128,18.128,0,0,0,380.573,149.893Z" transform="translate(-238.781 -101.243)" fill="#4885ec"/>
        <path id="Path_84" data-name="Path 84" d="M915.173,259.473s-17.357-1.046-15.329,11.132a2.97,2.97,0,0,0,1.544,3.129s.032-.914,1.781-.6a8.048,8.048,0,0,0,1.891.091,3.923,3.923,0,0,0,2.284-.95h0s4.887-2.019,6.783-10c0,0,1.407-1.74,1.37-2.188l-2.933,1.252a5.27,5.27,0,0,1,.215,3.873s-.1-3.8-.658-3.709c-.114,0-1.526.735-1.526.735s1.722,3.686.425,6.363c0,0,.493-4.54-.964-6.1l-2.065,1.206s2.014,3.8.649,6.911c0,0,.352-4.764-1.083-6.619l-1.868,1.462s1.891,3.75.735,6.326c0,0-.151-5.545-1.142-5.965a11.456,11.456,0,0,0-1.886,2.037s1.3,2.741.493,4.161c0,0-.493-3.7-.914-3.714a12.3,12.3,0,0,0-1.8,4.111,8.86,8.86,0,0,1,1.407-4.358,4.915,4.915,0,0,0-2.5,1.293s.256-1.731,2.9-1.882a11.4,11.4,0,0,1,1.708-1.973,10.736,10.736,0,0,0-4.23.489s1.407-1.631,4.709-.914L907,263.566s-3.467-.457-4.933.05c0,0,1.69-1.443,5.431-.393l2.01-1.2a18.3,18.3,0,0,0-4.714-.407s1.854-1,5.3.082l1.439-.644s-2.165-.425-2.8-.493-.667-.242-.667-.242a7.486,7.486,0,0,1,4.065.457A18.429,18.429,0,0,0,915.173,259.473Z" transform="translate(-529.189 -160.769)" fill="#4885ec" opacity="0.1"/>
        <path id="Path_85" data-name="Path 85" d="M440.2,302.616s-7.564-15.681-17.193-7.952a2.967,2.967,0,0,0-1.978,2.873s.8-.416,1.37,1.265a8.094,8.094,0,0,0,.84,1.69,3.942,3.942,0,0,0,1.96,1.553h0s4.143,3.28,12.041,1.041c0,0,2.206.379,2.567.114l-2.521-1.95a5.3,5.3,0,0,1-3.28,2.074s3.271-1.932,2.919-2.38c-.073-.091-1.37-.973-1.37-.973s-2.38,3.3-5.349,3.471c0,0,4.2-1.781,4.851-3.814L433,298.414s-2.343,3.618-5.719,3.937c0,0,4.33-2.014,5.248-4.17l-2.183-.914s-2.352,3.481-5.166,3.732c0,0,4.769-2.837,4.65-3.91a11.577,11.577,0,0,0-2.7-.653s-1.745,2.462-3.389,2.462c0,0,2.983-2.234,2.8-2.594a12.05,12.05,0,0,0-4.476.457,8.893,8.893,0,0,1,4.49-.914A4.92,4.92,0,0,0,424.2,294.3s1.635-.621,3.056,1.612a11.269,11.269,0,0,1,2.553.53,10.724,10.724,0,0,0-2.485-3.449s2.11.425,3.074,3.654l2.215.877s-1.274-3.252-2.448-4.28c0,0,2.083.772,2.992,4.568l2.028,1.169a18.072,18.072,0,0,0-1.941-4.312s1.777,1.133,2.512,4.668l1.265.941s-.685-2.1-.914-2.681-.114-.7-.114-.7a7.5,7.5,0,0,1,1.59,3.768A17.042,17.042,0,0,0,440.2,302.616Z" transform="translate(-269.171 -178.735)" fill="#4885ec" opacity="0.1"/>
        <path id="Path_86" data-name="Path 86" d="M823.977,199s-7.56-15.681-17.193-7.952a2.972,2.972,0,0,0-1.978,2.873s.8-.411,1.37,1.265a7.919,7.919,0,0,0,.845,1.695,3.919,3.919,0,0,0,1.955,1.548h0s4.148,3.28,12.041,1.046c0,0,2.206.375,2.572.11l-2.508-1.955a5.3,5.3,0,0,1-3.275,2.078s3.266-1.937,2.914-2.384c-.073-.091-1.37-.973-1.37-.973s-2.375,3.3-5.349,3.471c0,0,4.207-1.781,4.856-3.81l-2.087-1.206s-2.339,3.613-5.719,3.937c0,0,4.33-2.019,5.253-4.175l-2.188-.914s-2.352,3.485-5.162,3.732c0,0,4.764-2.837,4.645-3.905a11.3,11.3,0,0,0-2.7-.653s-1.745,2.457-3.394,2.457c0,0,2.987-2.234,2.8-2.594a12.078,12.078,0,0,0-4.481.457,8.889,8.889,0,0,1,4.49-.914,4.891,4.891,0,0,0-2.343-1.548s1.635-.621,3.056,1.612a11.308,11.308,0,0,1,2.553.534,10.689,10.689,0,0,0-2.489-3.453s2.11.429,3.074,3.677l2.22.877s-1.274-3.257-2.448-4.285c0,0,2.083.772,2.987,4.568l2.033,1.169a18.243,18.243,0,0,0-1.946-4.312s1.781,1.133,2.512,4.668l1.265.941s-.681-2.1-.914-2.681-.114-.7-.114-.7a7.514,7.514,0,0,1,1.585,3.768A17.541,17.541,0,0,0,823.977,199Z" transform="translate(-477.65 -122.446)" fill="#4885ec" opacity="0.1"/>
        <path id="Path_87" data-name="Path 87" d="M876.851,368.8s-7.56-15.686-17.207-7.957a2.972,2.972,0,0,0-1.978,2.873s.8-.411,1.37,1.265a7.915,7.915,0,0,0,.84,1.695,3.919,3.919,0,0,0,1.955,1.548h0s4.148,3.284,12.045,1.046c0,0,2.2.379,2.567.11l-2.521-1.95a5.3,5.3,0,0,1-3.28,2.078s3.266-1.937,2.914-2.384c-.073-.091-1.37-.973-1.37-.973s-2.375,3.3-5.349,3.476c0,0,4.207-1.786,4.856-3.814l-2.06-1.215s-2.339,3.618-5.719,3.937c0,0,4.33-2.019,5.253-4.175l-2.188-.914s-2.352,3.481-5.162,3.732c0,0,4.769-2.837,4.65-3.91a11.348,11.348,0,0,0-2.7-.653s-1.745,2.457-3.394,2.457c0,0,2.987-2.234,2.8-2.594a12.078,12.078,0,0,0-4.481.457,8.916,8.916,0,0,1,4.495-.914,4.883,4.883,0,0,0-2.348-1.548s1.635-.626,3.056,1.612a11.271,11.271,0,0,1,2.553.53,10.775,10.775,0,0,0-2.485-3.453s2.11.429,3.074,3.677l2.215.877s-1.274-3.257-2.448-4.28c0,0,2.083.767,2.987,4.568l2.033,1.165a18.241,18.241,0,0,0-1.946-4.312s1.781,1.133,2.517,4.673l1.265.914s-.685-2.1-.914-2.681-.114-.7-.114-.7a7.468,7.468,0,0,1,1.585,3.768A18.49,18.49,0,0,0,876.851,368.8Z" transform="translate(-506.365 -214.686)" fill="#4885ec" opacity="0.1"/>
        <ellipse id="Ellipse_5" data-name="Ellipse 5" cx="10.501" cy="1.174" rx="10.501" ry="1.174" transform="translate(81.745 355.841)" fill="#4885ec" opacity="0.1"/>
        <ellipse id="Ellipse_6" data-name="Ellipse 6" cx="10.501" cy="1.174" rx="10.501" ry="1.174" transform="translate(12.904 335.889)" fill="#4885ec" opacity="0.1"/>
        <ellipse id="Ellipse_7" data-name="Ellipse 7" cx="10.501" cy="1.174" rx="10.501" ry="1.174" transform="translate(134.219 369.092)" fill="#4885ec" opacity="0.1"/>
        <ellipse id="Ellipse_8" data-name="Ellipse 8" cx="10.501" cy="1.174" rx="10.501" ry="1.174" transform="translate(403.123 340.229)" fill="#4885ec" opacity="0.1"/>
        <ellipse id="Ellipse_9" data-name="Ellipse 9" cx="10.501" cy="1.174" rx="10.501" ry="1.174" transform="translate(315.737 334.533)" fill="#4885ec" opacity="0.1"/>
        <ellipse id="Ellipse_10" data-name="Ellipse 10" cx="12.42" cy="2.133" rx="12.42" ry="2.133" transform="translate(257.288 360.395)" fill="#4885ec" opacity="0.1"/>
        <path id="Path_88" data-name="Path 88" d="M678.181,790.14s-17.294,8.935-8.359,19.459a3.342,3.342,0,0,0,3.27,2.124s-.484-.886,1.37-1.594a8.907,8.907,0,0,0,1.868-.991A4.389,4.389,0,0,0,678,806.9h0s3.535-4.732.795-13.489c0,0,.356-2.476.046-2.878l-2.1,2.882a5.884,5.884,0,0,1,2.421,3.6s-2.284-3.595-2.741-3.2c-.1.082-1.042,1.576-1.042,1.576s3.764,2.553,4.042,5.87c0,0-2.119-4.645-4.408-5.308L673.7,798.3s4.111,2.5,4.568,6.267c0,0-2.389-4.773-4.828-5.737l-.964,2.471s3.965,2.521,4.33,5.655c0,0-3.316-5.239-4.508-5.075a12.667,12.667,0,0,0-.649,3.038s2.8,1.873,2.85,3.714c0,0-2.585-3.266-2.983-3.051,0,0-.164,3.284.63,4.992A9.855,9.855,0,0,1,671,805.579a5.481,5.481,0,0,0-1.658,2.668s-.745-1.8,1.708-3.467a12.637,12.637,0,0,1,.516-2.869,12.04,12.04,0,0,0-3.782,2.887s.416-2.371,4.015-3.549l.914-2.5s-3.6,1.526-4.709,2.869c0,0,.8-2.352,4.993-3.481l1.242-2.284a20.973,20.973,0,0,0-4.76,2.284s1.21-2.023,5.143-2.955l1.009-1.439s-2.32.827-2.969,1.124-.777.151-.777.151a8.4,8.4,0,0,1,4.161-1.891S678.341,790.3,678.181,790.14Z" transform="translate(-402.933 -449.053)" fill="#4885ec"/>
        <path id="Path_89" data-name="Path 89" d="M619.293,215.761c-2.987-8.117-19.431-8.88-26.566-6.811-5.07,1.475-15.759,3.138-21.468,3.974l-.37-.352c.74-.219.758-.758.667-1.558a24.377,24.377,0,0,1,.046-3.161c3.5,1.087,6.614-1.485,6.614-1.485h0c4.111-1.827,3.006-9.647,3.791-11.785.589-1.6,1.224-11.017,1.507-15.713h.059l.032-1.576c.041-.681.059-1.078.059-1.078s.4-11.483,1.188-13.808c.731-2.138,1.325-12.908,1.416-14.617v-.224l-.059-1c.041-.726.059-1.535.055-2.384,0-3.905-.407-8.825-.457-9.62v-.416c.032-1.667-.178-10.017-7.281-13.173-2.617-1.169-5.765-2.563-8.811-3.919-.786-6.783-2.581-13.53-2.425-20.363,0-1.028.091-2.055.192-3.079,0,.3-.032.6-.037.914v1.992c.27-8.546,3.5-17.138,3.2-25.5-.027.818-.087,1.64-.164,2.462a26.55,26.55,0,0,0-.877-8.4,4.97,4.97,0,0,0-1.434-2.6,5.906,5.906,0,0,0-2.5-.991,50.339,50.339,0,0,0-6.573-1.224,10.15,10.15,0,0,0-1.48-2.873c-4.632-6.358-11.493-12.333-19.6-13.7-4.07-.685-8.752-.114-11.52,2.8a8.639,8.639,0,0,0-.813.822c-1.489,1.777-2.129,4.111-3.654,5.883-.1.119-.215.228-.324.343-2.987,2.672-7.642,3.229-10.963,5.627a13.164,13.164,0,0,0-1.64,1.43,27.811,27.811,0,0,0-3.581,4.353c-1.494,2.1-3.028,4.289-3.5,6.8-.955,5.025,2.467,9.789,3.1,14.845,1.416,11.314-11.1,21.354-8.734,32.518a14.89,14.89,0,0,0,4.029,7.231c-4.883,4.422-9.04,8.711-9.04,8.711v.256h-.772l.078.914h-.078l.425,4.956-.425,7.217v.681h.027c.142,2.645.7,12.155,1.37,14.16.786,2.325,1.183,13.808,1.183,13.808s.868,16.229,1.663,18.376-.333,9.944,3.791,11.785h0a8.679,8.679,0,0,0,4.143,1.717c-.21,1.708-.078,2.946.6,3.334a1.991,1.991,0,0,0,.959.274,10.185,10.185,0,0,0-.745,1.3A19.349,19.349,0,0,1,498.8,212.7c-4.431-1.827-19.134-5.938-23.405-3.047s-14.548,5.513-9.8,17.152,6.957,11.931,6.957,11.931a16.9,16.9,0,0,1,3.8,3.814c1.425,2.142,14.7,7.043,18.024,7.043a32.517,32.517,0,0,1,4.225.21s-3.6,3.161-3.124,5-1.1,16.535-1.1,16.535,3.654,3.682,5.216-1.147l.055.073c.292.4,1.873,2.193,4.846-.073a27.17,27.17,0,0,1,3.864-2.448l14.4-2.037a40.753,40.753,0,0,1,4.508-.032c2.284.187,4.527-1.165,5.938-2.211,2.983,1.133,6.335,2.371,7.93,2.823,3.234.914,18.1,4.9,21.573,3.654a4.829,4.829,0,0,0,1.873-1.334l3.316.105-1.553.311s3.024.05,7.135.105l-.174.1,5.157-.046c7.546.069,16.024.091,17.138-.16,1.745-.388,10.812-.114,13.484,0h.745s9.962-1.987,5.851-12.1c-3.161-7.765-12.877-10.022-17.188-10.643,1.215-.242,2.261-.429,2.955-.539,3.01-.457,8.857-3.2,9.332-4.134s5.376-3.654,6.642-5.2S622.294,223.878,619.293,215.761Zm-82.516,22.715-.489.16-.329.11-.63.621c-.5-.338-1.041-.694-1.6-1.06C534.717,238.367,535.735,238.426,536.777,238.476Zm43.535,12.872Z" transform="translate(-292.717 -43.42)" fill="url(#linear-gradient)"/>
        <path id="Path_90" data-name="Path 90" d="M686.65,298s6.989,18.271,10.963,16.444,2.9-9.592,3.654-11.721,1.6-18.271,1.6-18.271.384-11.419,1.142-13.731c.7-2.124,1.274-12.835,1.37-14.521v-.224l-.754-13.246-4.266-1.064-9.894,3.654-1.37,7.825-.534,3.056-.228,1.3Z" transform="translate(-413.466 -151.11)" fill="#be6f72"/>
        <path id="Path_91" data-name="Path 91" d="M691.69,358.3s6.669,5.458,8.679,5.938,3.243,4.737,3.243,4.737" transform="translate(-416.204 -214.466)" opacity="0.1"/>
        <path id="Path_92" data-name="Path 92" d="M544.728,299.754s-6.989,18.271-10.963,16.444-2.9-9.592-3.654-11.721-1.6-18.271-1.6-18.271-.384-11.419-1.142-13.731c-.7-2.124-1.274-12.835-1.37-14.521v-.224l.758-13.246,4.266-1.064,9.894,3.654,1.37,7.825.534,3.056.228,1.3Z" transform="translate(-326.197 -152.061)" fill="#be6f72"/>
        <rect id="Rectangle_34" data-name="Rectangle 34" width="15.599" height="24.314" transform="translate(248.44 49.916)" fill="#3e373a"/>
        <rect id="Rectangle_35" data-name="Rectangle 35" width="15.599" height="24.314" transform="translate(248.44 49.916)" opacity="0.1"/>
        <path id="Path_93" data-name="Path 93" d="M556.489,404.861s-5.331,5.86-3.353,6.925S567.909,432.8,567.909,432.8s42.023,5.175,49.948-2.59,7.765-21.637,7.765-21.637-6.367,1.37-7.062.626-4.508-4.335-4.508-4.335S560.144,401.591,556.489,404.861Z" transform="translate(-340.7 -238.97)" fill="#4b4b5b"/>
        <path id="Path_94" data-name="Path 94" d="M556.489,404.861s-5.331,5.86-3.353,6.925S567.909,432.8,567.909,432.8s42.023,5.175,49.948-2.59,7.765-21.637,7.765-21.637-6.367,1.37-7.062.626-4.508-4.335-4.508-4.335S560.144,401.591,556.489,404.861Z" transform="translate(-340.7 -238.97)" opacity="0.02"/>
        <path id="Path_95" data-name="Path 95" d="M618.54,194.423l-13.7,10.963-4.143.3-1.521.11-25.547,1.873-26.493-1.937-3.942-.288-5.025-.365L527.66,195.03a179.911,179.911,0,0,1,13.95-13.342,28.616,28.616,0,0,1,6.76-4.518l.3-.105a7.519,7.519,0,0,0,2.9-2.019c5.143-5.3,9.9-18.39,9.9-18.39s22.688-11.721,19.947,3.654,10.2,11.575,10.2,11.575l4.266,1.946,1.685.772,4.3,1.969,9.7,4.449C619.17,184.524,618.54,194.423,618.54,194.423Z" transform="translate(-327.099 -102.607)" fill="#be6f72"/>
        <circle id="Ellipse_11" data-name="Ellipse 11" cx="20.404" cy="20.404" r="20.404" transform="translate(225.058 25.762)" opacity="0.1"/>
        <path id="Path_96" data-name="Path 96" d="M617.67,238.279H526v-.224l.758-13.246a179.916,179.916,0,0,1,13.95-13.342l57.554-2.284,2.677-2.823,9.7,4.449c7.614,3.5,7,13.4,7,13.4S618.68,235.676,617.67,238.279Z" transform="translate(-326.197 -131.929)" opacity="0.1"/>
        <path id="Path_97" data-name="Path 97" d="M617.67,237.279H526v-.224l.758-13.246a179.916,179.916,0,0,1,13.95-13.342l57.554-2.284,2.677-2.823,9.7,4.449c7.614,3.5,7,13.4,7,13.4S618.68,234.676,617.67,237.279Z" transform="translate(-326.197 -131.386)" fill="#e7c7ca"/>
        <path id="Path_98" data-name="Path 98" d="M587,189.174s14.461,18.426,33.724-.379,2.133,41.946,2.133,41.946l-41.567,4.933Z" transform="translate(-356.232 -120.425)" opacity="0.1"/>
        <path id="Path_99" data-name="Path 99" d="M587,191.174s14.461,18.426,33.724-.379,2.133,41.946,2.133,41.946l-41.567,4.933Z" transform="translate(-356.232 -121.511)" fill="#e7c7ca"/>
        <path id="Path_100" data-name="Path 100" d="M610.513,202.1l1.53,23.337,1.64,7.765,1.252,5.938s3.2,45.678,2.284,47.961.457,4.111.649,5.326-.192,4.266-.041,5.637,0,1.978-3.5,1.489-8.377-1.338-8.377-1.338-12.333.914-16.595-.608-12.333-1.526-12.333-1.526-12.182.306-16.138-.151-6.093,4.874-8.679,3.348,3.042-16.289,4.869-20.555-2.435-15.074-2.435-15.074l5.481-30.408,1.22-6.893V204.684l.3-.105a7.518,7.518,0,0,0,2.9-2.019l1.37,21.806,42.937,1.526V201.35" transform="translate(-340.07 -129.207)" opacity="0.1"/>
        <path id="Path_101" data-name="Path 101" d="M610.513,200.1l1.53,23.337,1.64,7.765,1.252,5.938s3.2,45.678,2.284,47.961.457,4.111.649,5.326-.192,4.266-.041,5.637,0,1.978-3.5,1.489-8.377-1.338-8.377-1.338-12.333.914-16.595-.608-12.333-1.526-12.333-1.526-12.182.306-16.138-.151-6.093,4.874-8.679,3.348,3.042-16.289,4.869-20.555-2.435-15.074-2.435-15.074l5.481-30.408,1.22-6.893V202.684l.3-.105a7.518,7.518,0,0,0,2.9-2.019l1.37,21.806,42.937,1.526V199.35" transform="translate(-340.07 -128.121)" fill="#e7c7ca"/>
        <path id="Path_102" data-name="Path 102" d="M607.852,68.783a5.033,5.033,0,0,0-1.37-2.585,5.61,5.61,0,0,0-2.412-.987A47.651,47.651,0,0,0,597.73,64a10.148,10.148,0,0,0-1.37-2.846c-4.476-6.322-11.1-12.283-18.892-13.63-4.079-.708-8.807-.073-11.419,3.143-1.434,1.768-2.051,4.111-3.5,5.847C559.759,59.88,554.72,60.3,551.2,62.9a21.021,21.021,0,0,0-4.568,5.285c-1.439,2.087-2.919,4.262-3.376,6.756-.914,4.983,2.38,9.734,2.987,14.763,1.37,11.25-10.689,21.231-8.409,32.331,1.329,6.473,7.308,11.031,13.493,13.342,2.179.818,4.668,1.631,5.687,3.723.457.914.534,1.969.964,2.891,1.443,3.079,6.189,3.2,8.738.955s3.353-5.87,3.654-9.254c1.224-14.781-4.7-29.384-4.006-44.2.206-4.481,1.466-9.565,5.481-11.593,5.4-2.741,11.9,1.827,17.851.955a35.414,35.414,0,0,1,1.708,21.61c-.945,3.942-2.581,7.765-2.7,11.83-.178,6.189,3.161,11.844,6.048,17.316a9.214,9.214,0,0,1,1.22,3.339,8.048,8.048,0,0,1-.653,3.494c-1.631,4.39-4.444,8.464-4.764,13.137a2.124,2.124,0,0,0,.343,1.562,1.964,1.964,0,0,0,1.179.53c4.933.845,9.2-3.526,11.607-7.916a37.108,37.108,0,0,0,4.577-15.768c.5-9.3-2.837-18.449-2.631-27.758C605.87,89.648,610.653,78.992,607.852,68.783Z" transform="translate(-332.472 -45.502)" opacity="0.1"/>
        <path id="Path_103" data-name="Path 103" d="M608.852,67.783a5.033,5.033,0,0,0-1.37-2.585,5.61,5.61,0,0,0-2.412-.987A47.648,47.648,0,0,0,598.73,63a10.15,10.15,0,0,0-1.37-2.846c-4.476-6.322-11.1-12.283-18.892-13.63-4.079-.708-8.807-.073-11.419,3.143-1.434,1.768-2.051,4.111-3.5,5.847C560.759,58.88,555.72,59.3,552.2,61.9a21.021,21.021,0,0,0-4.568,5.285c-1.439,2.087-2.919,4.262-3.376,6.756-.914,4.983,2.38,9.734,2.987,14.763,1.37,11.25-10.689,21.231-8.409,32.331,1.329,6.473,7.308,11.031,13.493,13.342,2.179.818,4.668,1.631,5.687,3.723.457.914.534,1.969.964,2.891,1.443,3.079,6.189,3.2,8.738.955s3.353-5.87,3.654-9.254c1.224-14.781-4.7-29.384-4.006-44.2.206-4.481,1.466-9.565,5.481-11.593,5.4-2.741,11.9,1.827,17.851.955a35.414,35.414,0,0,1,1.708,21.61c-.946,3.942-2.581,7.765-2.7,11.83-.178,6.189,3.161,11.844,6.048,17.316a9.214,9.214,0,0,1,1.22,3.339,8.049,8.049,0,0,1-.653,3.494c-1.631,4.39-4.444,8.464-4.764,13.137a2.124,2.124,0,0,0,.343,1.562,1.964,1.964,0,0,0,1.179.53c4.933.845,9.2-3.526,11.607-7.916a37.109,37.109,0,0,0,4.577-15.768c.5-9.3-2.837-18.449-2.631-27.758C606.87,88.648,611.653,77.992,608.852,67.783Z" transform="translate(-333.015 -44.958)" fill="#3e373a"/>
        <path id="Path_104" data-name="Path 104" d="M581.79,477.438l18.12.58-2.6-13.438L583.43,465.9Z" transform="translate(-316.043 -252.367)" fill="#c3c7d9"/>
        <path id="Path_105" data-name="Path 105" d="M693.157,432.748c-1.22,1.521-5.938,4.262-6.395,5.175s-6.089,3.654-8.985,4.111-12.027,2.439-13.7,3.5c-1.2.767-10.844,3.2-17.179,4.545a48.751,48.751,0,0,1-5.2.936c-2.741.151-32.733-10.049-32.733-10.049l5.783-5.938.32-.11c1.635-.553,9.19-3.106,13.384-4.321,4.723-1.37,10.2-7,10.2-7s8.067-2.741,9.135-3.047-2.741-10.657-2.741-10.657,17.508-2.43,24.36-4.49,22.688-1.3,25.579,6.774S694.4,431.227,693.157,432.748Z" transform="translate(-371.263 -239.528)" fill="#4b4b5b"/>
        <path id="Path_106" data-name="Path 106" d="M572.631,503.558s-3.5,3.654-7,3.353-15.754.914-15.754.914A24.561,24.561,0,0,0,543.7,511.4c-2.864,2.256-4.385.457-4.668.073l-.05-.073c-1.526,4.8-5.025,1.142-5.025,1.142s1.521-14.617,1.055-16.444,3.01-4.965,3.01-4.965l4.111-1.046,10.414-2.668,14.923,5.175Z" transform="translate(-330.521 -284.608)" fill="#e7c7ca"/>
        <path id="Path_107" data-name="Path 107" d="M542.118,493.26l-3.083,21.386-.05-.073c-1.526,4.8-5.025,1.142-5.025,1.142s1.521-14.617,1.055-16.444,3.01-4.965,3.01-4.965Z" transform="translate(-330.521 -287.78)" opacity="0.1"/>
        <path id="Path_108" data-name="Path 108" d="M599,360.08s8.067,2.741,15.074,0" transform="translate(-365.853 -215.433)" opacity="0.1"/>
        <path id="Path_109" data-name="Path 109" d="M659.29,371.42s3.348,1.672,5.938,0" transform="translate(-398.604 -221.594)" opacity="0.1"/>
        <path id="Path_110" data-name="Path 110" d="M659.29,379.187s5.632.754,6.7-.767" transform="translate(-398.604 -225.396)" opacity="0.1"/>
        <path id="Path_111" data-name="Path 111" d="M655.29,394.947s10.579-1.37,13.205-3.2" transform="translate(-396.431 -232.637)" opacity="0.1"/>
        <path id="Path_112" data-name="Path 112" d="M584.62,391.75s5.938,3.348,10.355,3.2" transform="translate(-358.041 -232.637)" opacity="0.1"/>
        <path id="Path_113" data-name="Path 113" d="M646.885,486.34a48.76,48.76,0,0,1-5.2.936c-2.741.151-32.732-10.049-32.732-10.049l5.783-5.938.32-.11c.914.644,1.663,1.2,2.2,1.617,2.517,1.982,4.947-.607,5.86-.607s8.829,6.546,8.829,6.546,7.308,1.676,8.528,3.2,5.481,1.22,6.24,2.284A4.074,4.074,0,0,1,646.885,486.34Z" transform="translate(-371.258 -275.786)" opacity="0.1"/>
        <path id="Path_114" data-name="Path 114" d="M515.515,411.321s-7.391.425-11.652-1.37-18.422-5.938-22.533-3.028-14.009,5.481-9.442,17.056,6.7,11.876,6.7,11.876a16.49,16.49,0,0,1,3.654,3.791c1.37,2.133,14.16,7,17.357,7s8.829,0,16.745,5.481a34.415,34.415,0,0,0,15.074,6.093s10.049,4.111,13.178,5.025,17.426,4.869,20.779,3.654,5.481-8.834,5.481-8.834,1.521-6.852.758-7.916-5.024-.763-6.24-2.284-8.528-3.2-8.528-3.2-7.9-6.55-8.811-6.55-3.344,2.585-5.86.607a133.706,133.706,0,0,0-15.763-10.049C520.631,425.632,515.515,411.321,515.515,411.321Z" transform="translate(-296.162 -240.332)" fill="#4b4b5b"/>
        <path id="Path_115" data-name="Path 115" d="M536.27,427.21a8.725,8.725,0,0,1,7.487,1.978c3.654,3.047,15.951,9.163,15.951,9.163" transform="translate(-331.776 -251.804)" opacity="0.1"/>
        <path id="Path_116" data-name="Path 116" d="M713.3,427S697,429.467,693.96,432.815" transform="translate(-417.437 -251.786)" opacity="0.1"/>
        <path id="Path_117" data-name="Path 117" d="M727.493,510.259h-.717c-2.576-.091-11.305-.365-12.986,0-1.978.457-28.169,0-28.169,0l5.12-1.064s-1.9-6.66-.694-7.212c0,0-6.852-4.513-1.685-7.56a16.026,16.026,0,0,1,10.734-1.763l12.968-4.394,2.49-.845s14.617.763,18.572,10.812S727.493,510.259,727.493,510.259Z" transform="translate(-412.907 -284.608)" fill="#e7c7ca"/>
        <path id="Path_118" data-name="Path 118" d="M758.94,510.286h-.717c4.253-3.508,13.872-14.187-14.713-21.971L746,487.47s14.617.763,18.573,10.812S758.94,510.286,758.94,510.286Z" transform="translate(-444.354 -284.635)" opacity="0.1"/>
        <circle id="Ellipse_12" data-name="Ellipse 12" cx="0.799" cy="0.799" r="0.799" transform="translate(286.914 212.213)" fill="#4b4b5b"/>
        <circle id="Ellipse_13" data-name="Ellipse 13" cx="0.799" cy="0.799" r="0.799" transform="translate(282.269 213.533)" fill="#4b4b5b"/>
        <g id="Group_3" data-name="Group 3" transform="translate(205.66 28.731)" opacity="0.1">
            <path id="Path_119" data-name="Path 119" d="M627.811,123.183a35.441,35.441,0,0,0-2.622-14.681c-5.938.886-12.443-3.7-17.851-.955-4,2.028-5.258,7.112-5.481,11.593-.055,1.183-.064,2.366-.041,3.549,0-.42,0-.845.041-1.265.21-4.481,1.466-9.565,5.481-11.593,5.408-2.741,11.9,1.827,17.851.955a35.345,35.345,0,0,1,2.622,12.4Z" transform="translate(-573.036 -106.501)"/>
            <path id="Path_120" data-name="Path 120" d="M554.2,123.438a15.223,15.223,0,0,0-.059-2.987c-.484-4.02-2.681-7.861-3.079-11.78-.512,4.728,2.5,9.268,3.079,14.064A2.854,2.854,0,0,1,554.2,123.438Z" transform="translate(-545.439 -107.592)"/>
            <path id="Path_121" data-name="Path 121" d="M571.65,214.764c-.283,3.389-1.083,7.012-3.654,9.259s-7.308,2.124-8.738-.955c-.457-.914-.525-1.978-.968-2.891-1.014-2.092-3.508-2.905-5.687-3.723-6.189-2.316-12.159-6.852-13.489-13.342a14.007,14.007,0,0,1-.242-1.781,14.4,14.4,0,0,0,.242,4.065c1.329,6.473,7.308,11.027,13.489,13.342,2.179.818,4.673,1.631,5.687,3.723.457.914.534,1.969.968,2.891,1.439,3.079,6.185,3.2,8.738.955s3.348-5.87,3.654-9.259a52.211,52.211,0,0,0,.142-5.363C571.792,212.722,571.732,213.745,571.65,214.764Z" transform="translate(-538.823 -157.927)"/>
            <path id="Path_122" data-name="Path 122" d="M687.93,129.688v1.978c.256-8.5,3.371-17.038,3.065-25.356C690.757,114,688.1,121.868,687.93,129.688Z" transform="translate(-619.821 -106.31)"/>
            <path id="Path_123" data-name="Path 123" d="M657.949,208.073a5.887,5.887,0,0,0,.1-1.649,9.134,9.134,0,0,0-1.22-3.339c-2.64-5.025-5.65-10.168-6.007-15.745,0,.238-.032.457-.036.713-.183,6.185,3.156,11.844,6.043,17.316a10.967,10.967,0,0,1,1.115,2.7Z" transform="translate(-599.643 -150.327)"/>
            <path id="Path_124" data-name="Path 124" d="M672.544,217.174a37.168,37.168,0,0,1-4.609,15.768c-2.412,4.39-6.673,8.761-11.611,7.916a1.941,1.941,0,0,1-1.179-.534,1.141,1.141,0,0,1-.215-.356c-.055.356-.1.717-.128,1.083a2.106,2.106,0,0,0,.343,1.558,1.941,1.941,0,0,0,1.179.534c4.938.845,9.2-3.526,11.611-7.916a37.168,37.168,0,0,0,4.609-15.768c.055-1.069.059-2.133.027-3.2C672.563,216.566,672.563,216.868,672.544,217.174Z" transform="translate(-601.809 -166.038)"/>
        </g>
        <path id="Path_125" data-name="Path 125" d="M695.31,512.3s11.561,4.851,19.185-5.883" transform="translate(-418.171 -294.929)" fill="none" stroke="#000" stroke-miterlimit="10" stroke-width="1" opacity="0.1"/>
        <path id="Path_126" data-name="Path 126" d="M700.29,534.543s9.442-6.139,21.469-.2" transform="translate(-420.876 -308.691)" fill="none" stroke="#000" stroke-miterlimit="10" stroke-width="1" opacity="0.1"/>
        <path id="Path_127" data-name="Path 127" d="M561.93,529.235s3.965-8.944,14.553-2.124" transform="translate(-345.715 -304.776)" fill="none" stroke="#000" stroke-miterlimit="10" stroke-width="1" opacity="0.1"/>
        <path id="Path_128" data-name="Path 128" d="M533.79,234.622l8.085-7.308s31.348-2.055,32.646,8.6c0,0,11.113-12.634,34.487-9.821l9.889,7.875-27.333,11.995L565,255.177l-19.564-8.756Z" transform="translate(-330.429 -142.427)" opacity="0.1"/>
        <path id="Path_129" data-name="Path 129" d="M533.79,235.622l8.085-7.308s31.348-2.055,32.646,8.6c0,0,11.113-12.634,34.487-9.821l9.889,7.875-27.333,11.995L565,256.177l-19.564-8.756Z" transform="translate(-330.429 -142.97)" fill="#d5d6db"/>
        <path id="Path_130" data-name="Path 130" d="M437.38,204.83l3.577,42.786,37.912,1.9-1.644-42.6-.032-.717Z" transform="translate(-237.596 -111.265)" opacity="0.1"/>
        <path id="Path_131" data-name="Path 131" d="M437.38,202.83l3.577,42.786,37.912,1.9-1.644-42.6-.032-.717Z" transform="translate(-237.596 -110.178)" fill="#4885ec"/>
        <path id="Path_132" data-name="Path 132" d="M588.819,202.83l-39.109,5.865v42.978l38.218-5.522Z" transform="translate(-298.616 -110.178)" opacity="0.1"/>
        <path id="Path_133" data-name="Path 133" d="M588.819,200.83l-39.109,5.865v42.978l38.218-5.522Z" transform="translate(-298.616 -109.092)" fill="#4885ec"/>
        <path id="Path_134" data-name="Path 134" d="M590.016,223.79l-21.126,2.348.461,7.2L590,231.08Z" transform="translate(-309.035 -121.564)" fill="#fff" opacity="0.3"/>
        <path id="Path_135" data-name="Path 135" d="M537.2,344.764l2.151,5.787s3.2,2.741,6.7,1.37,6.55-2.051,8.071-3.385,3.654-8.035,3.654-8.035,2.133-7.308,4.262-9.136,7.765-27,0-24.538-13.7,25.3-13.7,25.3a5.416,5.416,0,0,1-3.348,1.827c-1.978.155-5.938-.306-6.7,1.37S534.914,341.416,537.2,344.764Z" transform="translate(-331.782 -186.414)" fill="#be6f72"/>
        <path id="Path_136" data-name="Path 136" d="M624.65,255.679a13.155,13.155,0,0,1-11.47-2.859l1.649,42.6a11.625,11.625,0,0,0,9.821,3.243Z" transform="translate(-373.556 -157.167)" opacity="0.1"/>
        <path id="Path_137" data-name="Path 137" d="M624.65,253.679a13.155,13.155,0,0,1-11.47-2.859l1.649,42.6a11.625,11.625,0,0,0,9.821,3.243Z" transform="translate(-373.556 -156.081)" fill="#4885ec"/>
        <path id="Path_138" data-name="Path 138" d="M624.65,253.679a13.155,13.155,0,0,1-11.47-2.859l1.649,42.6a11.625,11.625,0,0,0,9.821,3.243Z" transform="translate(-373.556 -156.081)" opacity="0.1"/>
        <path id="Path_139" data-name="Path 139" d="M640.29,241.521s15.909-4.865,20.057-4.179" transform="translate(-388.282 -148.723)" opacity="0.1"/>
        <path id="Path_140" data-name="Path 140" d="M579.927,238.587s-15.421-3.654-18-2.617" transform="translate(-345.715 -147.913)" opacity="0.1"/>
        <path id="Path_141" data-name="Path 141" d="M662.25,244.872s10.638-3.9,14.484-2.046" transform="translate(-400.212 -151.466)" opacity="0.1"/>
        <path id="Path_142" data-name="Path 142" d="M650.52,452.613a34.978,34.978,0,0,1,5.244-3.257,85.539,85.539,0,0,0,7.765-4.746" transform="translate(-393.84 -261.352)" opacity="0.1"/>
        <path id="Path_143" data-name="Path 143" d="M547.752,360.08s-6.674,5.458-8.679,5.938-3.243,4.737-3.243,4.737" transform="translate(-331.537 -215.433)" opacity="0.1"/>
        <path id="Path_144" data-name="Path 144" d="M681.078,343l-2.129,5.8s-3.2,2.741-6.7,1.37-6.546-2.051-8.071-3.385-3.654-8.035-3.654-8.035-2.129-7.308-4.262-9.135-7.765-27,0-24.538,13.7,25.3,13.7,25.3a5.416,5.416,0,0,0,3.348,1.827c1.978.155,5.938-.306,6.7,1.37S683.362,339.666,681.078,343Z" transform="translate(-394.799 -185.463)" fill="#be6f72"/>
        <path id="Path_145" data-name="Path 145" d="M707.15,364.94s4.362,2.8,4.344,6.157" transform="translate(-424.602 -218.073)" opacity="0.1"/>
        <circle id="Ellipse_14" data-name="Ellipse 14" cx="20.404" cy="20.404" r="20.404" transform="translate(225.131 24.761)" fill="#be6f72"/>
        <path id="Path_146" data-name="Path 146" d="M586.054,104.717c2.476-.388,4.645-1.827,7.011-2.654,5.294-1.859,11.15-.585,16.508,1.092a21.41,21.41,0,0,0,6.3,1.37,6.375,6.375,0,0,0,5.545-2.741,6.2,6.2,0,0,0-.037-5.723,16.121,16.121,0,0,0-3.727-4.6c-4.75-4.486-10.643-8.679-17.161-8.222a23.618,23.618,0,0,0-7.541,2.161,83.131,83.131,0,0,0-8.852,4.458c-2.2,1.274-6.267,2.978-7.532,5.308C573.69,100.414,581.578,105.42,586.054,104.717Z" transform="translate(-353.332 -65.028)" fill="#3e373a"/>
        <path id="Path_147" data-name="Path 147" d="M621.416,115.378a6.375,6.375,0,0,1-5.545,2.741,21.426,21.426,0,0,1-6.3-1.343c-5.358-1.676-11.209-2.955-16.508-1.092-2.362.827-4.536,2.284-7.011,2.649-3.609.566-9.419-2.576-10.049-6.573-.708,4.618,6.029,8.574,10.049,7.943,2.476-.388,4.65-1.827,7.011-2.649,5.3-1.864,11.15-.585,16.508,1.092a20.559,20.559,0,0,0,6.3,1.343,6.423,6.423,0,0,0,5.545-2.741,5.349,5.349,0,0,0,.639-3.339,4.925,4.925,0,0,1-.64,1.969Z" transform="translate(-353.33 -80.54)" opacity="0.1"/>
        <path id="Path_148" data-name="Path 148" d="M1029.135,661.63s2.709,3.54-1.252,8.889-7.222,9.862-5.906,13.2c0,0,5.975-9.93,10.835-10.072S1034.475,667.6,1029.135,661.63Z" transform="translate(-595.463 -379.243)" fill="#4885ec"/>
        <path id="Path_149" data-name="Path 149" d="M1029.319,661.63a4.382,4.382,0,0,1,.553,1.11c4.741,5.573,7.272,10.775,2.709,10.9-4.248.123-9.341,7.72-10.561,9.633a4.466,4.466,0,0,0,.142.457s5.975-9.93,10.835-10.072S1034.659,667.6,1029.319,661.63Z" transform="translate(-595.648 -379.243)" opacity="0.1"/>
        <path id="Path_150" data-name="Path 150" d="M1048.256,670.562c0,1.247-.142,2.257-.311,2.257s-.315-1.01-.315-2.257.174-.658.347-.658S1048.256,669.315,1048.256,670.562Z" transform="translate(-609.56 -383.662)" fill="#ffd037"/>
        <path id="Path_151" data-name="Path 151" d="M1050.252,673.725c-1.092.594-2.046.955-2.129.8s.735-.758,1.827-1.37.662-.164.745,0S1051.348,673.127,1050.252,673.725Z" transform="translate(-609.824 -385.336)" fill="#ffd037"/>
        <path id="Path_152" data-name="Path 152" d="M999.435,661.63s-2.709,3.54,1.252,8.889,7.222,9.862,5.9,13.2c0,0-5.97-9.93-10.835-10.072S994.109,667.6,999.435,661.63Z" transform="translate(-580.079 -379.243)" fill="#4885ec"/>
        <path id="Path_153" data-name="Path 153" d="M999.435,661.63a4.386,4.386,0,0,0-.553,1.11c-4.741,5.573-7.272,10.775-2.709,10.9,4.243.123,9.341,7.72,10.561,9.633a3.532,3.532,0,0,1-.146.457s-5.97-9.93-10.835-10.072S994.109,667.6,999.435,661.63Z" transform="translate(-580.079 -379.243)" opacity="0.1"/>
        <path id="Path_154" data-name="Path 154" d="M995.64,670.562c0,1.247.137,2.257.311,2.257s.315-1.01.315-2.257-.178-.658-.347-.658S995.64,669.315,995.64,670.562Z" transform="translate(-581.317 -383.662)" fill="#ffd037"/>
        <path id="Path_155" data-name="Path 155" d="M991.069,673.725c1.092.594,2.046.955,2.129.8s-.735-.758-1.827-1.37-.662-.164-.745,0S989.973,673.127,991.069,673.725Z" transform="translate(-578.473 -385.336)" fill="#ffd037"/>
        <ellipse id="Ellipse_15" data-name="Ellipse 15" cx="28.32" cy="4.344" rx="28.32" ry="4.344" transform="translate(398.194 322.88)" fill="#4885ec" opacity="0.1"/>
        <path id="Path_156" data-name="Path 156" d="M1019.559,697.564l-.137,1.105-.192,1.562-.078.653-.192,1.562-.082.653-.187,1.558-2.17,17.769c-.192,1.585-2.782,2.823-5.911,2.823H999.352c-3.129,0-5.714-1.238-5.911-2.823l-2.17-17.769-.192-1.558-.078-.653-.192-1.562-.082-.653-.187-1.562-.137-1.105c-.105-.914,1.293-1.654,3.065-1.654H1016.5C1018.267,695.91,1019.669,696.664,1019.559,697.564Z" transform="translate(-578.47 -397.865)" fill="#65617d"/>
        <path id="Path_157" data-name="Path 157" d="M931.012,658.53l-.187,1.562h-28.5l-.192-1.562Z" transform="translate(-490.059 -357.726)" fill="#9d9cb5"/>
        <path id="Path_158" data-name="Path 158" d="M931.063,663.38l-.187,1.562H902.912l-.192-1.562Z" transform="translate(-490.38 -360.36)" fill="#9d9cb5"/>
        <path id="Path_159" data-name="Path 159" d="M931.119,668.23l-.192,1.562h-27.42l-.187-1.562Z" transform="translate(-490.706 -362.995)" fill="#9d9cb5"/>
    </g>
</svg>
